<?xml version="1.0" encoding="iso-8859-1"?><!-- Generator: Adobe Illustrator 16.0.0, SVG Export Plug-In . SVG Version: 6.00 Build 0) --><!DOCTYPE svg PUBLIC "-//W3C//DTD SVG 1.1//EN" "http://www.w3.org/Graphics/SVG/1.1/DTD/svg11.dtd"><svg version="1.1" id="Layer_1" xmlns="http://www.w3.org/2000/svg" xmlns:xlink="http://www.w3.org/1999/xlink" x="0px" y="0px" width="192.756px" height="192.756px" viewBox="0 0 192.756 192.756" style="enable-background:new 0 0 192.756 192.756;" xml:space="preserve"><g><polygon style="fill-rule:evenodd;clip-rule:evenodd;fill:#FFFFFF;" points="0,0 192.756,0 192.756,192.756 0,192.756 0,0	"/><polygon style="fill-rule:evenodd;clip-rule:evenodd;fill:#CC2131;" points="169.514,157.318 169.514,10.702 22.896,10.702	22.896,157.318 169.514,157.318	"/><polygon style="fill-rule:evenodd;clip-rule:evenodd;fill:#FFFFFF;" points="104.738,107.285 139.037,107.285 134.674,114.268	100.375,114.268 104.738,107.285	"/><polygon style="fill-rule:evenodd;clip-rule:evenodd;fill:#FFFFFF;" points="79.928,137.027 140.93,137.027 136.564,144.01	75.563,144.01 79.928,137.027	"/><polygon style="fill-rule:evenodd;clip-rule:evenodd;fill:#FFFFFF;" points="121.889,73.1 126.445,70.255 137.18,87.453	122.615,96.553 119.787,92.011 129.809,85.74 121.889,73.1	"/><polygon style="fill-rule:evenodd;clip-rule:evenodd;fill:#FFFFFF;" points="33.554,85.32 80.364,85.32 76,92.302 29.19,92.302	33.554,85.32	"/><path style="fill-rule:evenodd;clip-rule:evenodd;fill:#FFFFFF;" d="M117.443,85.079c2.43,0,4.398-1.969,4.398-4.398	c0-2.429-1.969-4.397-4.398-4.397s-4.398,1.968-4.398,4.397C113.045,83.11,115.014,85.079,117.443,85.079L117.443,85.079z"/><polygon style="fill-rule:evenodd;clip-rule:evenodd;fill:#FFFFFF;" points="41.313,72.906 88.123,72.906 83.758,79.889	36.949,79.889 41.313,72.906	"/><polygon style="fill-rule:evenodd;clip-rule:evenodd;fill:#FFFFFF;" points="49.072,60.363 95.881,60.363 91.517,67.346	44.708,67.346 49.072,60.363	"/><path style="fill-rule:evenodd;clip-rule:evenodd;fill:#FFFFFF;" d="M147.67,14.733c-40.863,20.28-100.215,43.76-100.215,91.647	c0,17.836,10.258,30.881,20.56,35.785l52.758-84.405l-4.105-6.53l-50.496,80.818c-5.216-3.844-11.864-13.85-11.864-27.221	c0-36.902,46.691-61.263,86.992-79.847L147.67,14.733L147.67,14.733z"/><polygon style="fill-rule:evenodd;clip-rule:evenodd;fill:#76777A;" points="66.556,177.381 66.688,176.789 66.753,176.459	66.688,176.459 63.396,176.459 62.475,180.672 62.146,181.924 62.475,181.924 65.568,181.924 65.766,181.002 63.528,181.002	63.857,179.553 65.898,179.553 66.095,178.631 64.055,178.631 64.318,177.381 66.556,177.381	"/><polygon style="fill-rule:evenodd;clip-rule:evenodd;fill:#76777A;" points="70.505,180.408 69.254,176.459 67.807,176.459	66.688,181.594 66.556,181.924 66.688,181.924 67.675,181.924 68.531,177.973 69.781,181.924 71.229,181.924 72.48,176.459	71.427,176.459 70.505,180.408	"/><polygon style="fill-rule:evenodd;clip-rule:evenodd;fill:#76777A;" points="77.548,177.578 77.812,176.592 77.614,176.525	77.548,176.525 77.482,176.525 77.351,176.459 77.219,176.459 77.022,176.395 76.89,176.395 76.758,176.395 76.561,176.395	76.429,176.328 76.166,176.328 75.903,176.395 75.771,176.395 75.705,176.395 75.507,176.459 75.376,176.459 75.31,176.525	75.178,176.525 75.047,176.592 74.916,176.656 74.784,176.723 74.652,176.789 74.586,176.855 74.455,176.92 74.389,176.92	74.257,176.986 74.191,177.053 74.06,177.117 73.994,177.184 73.928,177.314 73.796,177.381 73.73,177.447 73.665,177.578	73.599,177.645 73.467,177.711 73.401,177.842 73.335,177.973 73.27,178.039 73.204,178.17 73.138,178.236 73.072,178.369	73.006,178.5 72.941,178.697 72.875,178.961 72.809,179.225 72.809,179.422 72.743,179.686 72.743,179.883 72.743,180.014	72.743,180.146 72.743,180.211 72.743,180.344 72.809,180.475 72.809,180.541 72.809,180.672 72.875,180.738 72.941,180.869	72.941,180.936 73.006,181.066 73.072,181.133 73.138,181.264 73.204,181.33 73.27,181.396 73.335,181.463 73.401,181.527	73.467,181.594 73.599,181.66 73.665,181.725 73.73,181.791 73.862,181.791 73.928,181.857 74.06,181.857 74.125,181.924	74.323,181.988 74.455,181.988 74.586,181.988 74.718,181.988 74.85,182.055 75.047,182.055 75.31,182.055 75.442,182.055	75.574,181.988 75.705,181.988 75.837,181.988 75.969,181.988 76.1,181.924 76.232,181.857 76.363,181.857 76.495,181.791	76.626,181.725 76.758,180.805 76.626,180.869 76.495,180.869 76.363,180.936 76.232,181.002 76.034,181.002 75.771,181.066	75.574,181.066 75.376,181.066 75.178,181.002 74.981,181.002 74.85,180.936 74.652,180.869 74.52,180.738 74.389,180.672	74.257,180.541 74.191,180.408 74.125,180.211 74.06,180.014 73.994,179.883 73.994,179.686 73.994,179.488 74.06,179.289	74.06,179.092 74.125,178.895 74.191,178.764 74.257,178.631 74.323,178.434 74.455,178.303 74.586,178.17 74.718,177.973	74.85,177.842 74.981,177.711 75.113,177.645 75.31,177.578 75.442,177.514 75.639,177.447 75.837,177.381 76.034,177.314	76.232,177.314 76.429,177.314 76.692,177.314 76.89,177.381 77.022,177.381 77.153,177.447 77.285,177.447 77.417,177.514	77.548,177.578	"/><polygon style="fill-rule:evenodd;clip-rule:evenodd;fill:#76777A;" points="62.738,176.395 62.475,176.395 61.553,176.395	59.184,180.738 58.723,176.395 57.472,176.395 58.196,181.924 59.579,181.924 62.475,176.92 62.738,176.395	"/><path style="fill-rule:evenodd;clip-rule:evenodd;fill:#76777A;" d="M56.814,178.105v-0.066l-0.065-0.131v-0.133v-0.064	l-0.066-0.133v-0.064l-0.066-0.066l-0.066-0.133v-0.064l-0.066-0.066l-0.065-0.131l-0.066-0.066l-0.066-0.066l-0.065-0.064	l-0.132-0.066l-0.066-0.066l-0.066-0.066h-0.065l-0.132-0.064l-0.066-0.066h-0.131l-0.066-0.066l-0.197-0.064h-0.263l-0.198-0.066	h-0.197h-0.263l-0.198,0.066h-0.197h-0.066l-0.131,0.064H53.72l-0.131,0.066h-0.131l-0.132,0.066l-0.066,0.064h-0.131l-0.132,0.066	l-0.066,0.066l-0.131,0.066l-0.066,0.064l-0.132,0.066l-0.066,0.131l-0.132,0.066l-0.131,0.066l-0.066,0.064l-0.066,0.133	l-0.066,0.066l-0.131,0.131l-0.066,0.066l-0.065,0.064l-0.066,0.133l-0.065,0.131l-0.066,0.066l-0.066,0.131l-0.065,0.133v0.131	l-0.066,0.066l-0.132,0.264l-0.066,0.262v0.197l-0.066,0.264v0.197v0.133v0.131v0.133v0.131v0.066v0.131l0.066,0.066v0.131	l0.066,0.066v0.131l0.066,0.066l0.066,0.131l0.066,0.066v0.066l0.065,0.064l0.066,0.133l0.066,0.066l0.065,0.064l0.066,0.066	l0.131,0.066h0.066l0.065,0.064l0.132,0.066h0.066l0.066,0.066l0.131,0.066h0.132l0.198,0.064h0.197h0.263h0.066h0.132h0.263h0.198	h0.066l0.197-0.064h0.066l0.131-0.066h0.131l0.066-0.066l0.132-0.066h0.131l0.132-0.064l0.066-0.066l0.131-0.066l0.066-0.064	l0.131-0.066l0.066-0.066l0.131-0.066l0.066-0.131l0.132-0.066l0.066-0.131l0.131-0.066l0.066-0.131l0.066-0.066l0.065-0.131	l0.066-0.066l0.065-0.131l0.066-0.066l0.066-0.131l0.065-0.133v-0.131l0.066-0.133l0.066-0.197l0.066-0.264l0.066-0.197	l0.065-0.262v-0.264l0.066-0.066v-0.131l-0.066-0.133V178.105L56.814,178.105z M55.563,178.764v0.131v0.133l-0.066,0.262	l-0.065,0.199l-0.066,0.262l-0.131,0.133l-0.066,0.197l-0.131,0.197l-0.132,0.131l-0.066,0.133l-0.131,0.131l-0.132,0.133	l-0.131,0.064l-0.197,0.066l-0.132,0.066l-0.066,0.064h-0.065l-0.132,0.066H53.72h-0.131h-0.131h-0.066H53.26l-0.131-0.066	l-0.132-0.064l-0.132-0.066l-0.131-0.131l-0.066-0.066l-0.132-0.133l-0.066-0.197v-0.131l-0.066-0.131v-0.133v-0.197v-0.197v-0.197	l0.066-0.264l0.066-0.197l0.066-0.197l0.066-0.197l0.066-0.197l0.131-0.199l0.132-0.131l0.132-0.197l0.131-0.131l0.132-0.133	l0.131-0.064l0.197-0.066l0.066-0.066l0.131-0.066h0.066l0.131-0.064h0.132h0.197h0.131h0.198l0.131,0.064l0.132,0.066l0.066,0.066	l0.065,0.066l0.132,0.064l0.065,0.133l0.066,0.131l0.065,0.197l0.066,0.197v0.133v0.197V178.764L55.563,178.764z"/><path style="fill-rule:evenodd;clip-rule:evenodd;fill:#76777A;" d="M50.693,177.184l-0.066-0.131l-0.066-0.066l-0.066-0.131	l-0.066-0.133l-0.131-0.066l-0.131-0.064l-0.132-0.066h-0.197l-0.132-0.066h-0.198h-0.131l-0.198-0.064h-0.131h-0.132h-0.329	h-1.448l-1.25,5.396v0.133l0,0h1.185l0.46-2.305h0.263l0.066,0.066h0.131h0.132l0.132,0.064h0.066l0.066,0.066v0.066h0.065	l0.066,0.066v0.197l0.066,0.131v0.066v0.064l0.263,1.516h1.25l-0.395-2.041v-0.133v-0.131l-0.066-0.131v-0.066l-0.065-0.066	l-0.066-0.066h-0.066l-0.065-0.064H49.31l0.132-0.066l0.132-0.066l0.198-0.064l0.131-0.133l0.197-0.064l0.066-0.133l0.131-0.066	l0.131-0.064l0.066-0.133l0.066-0.131l0.066-0.197l0.066-0.133v-0.197l0.065-0.131v-0.131l-0.065-0.133V177.184L50.693,177.184z M49.442,177.908v0.064v0.066v0.066l-0.065,0.131v0.066l-0.132,0.131l-0.066,0.066l-0.131,0.066v0.064h-0.132l-0.066,0.066h-0.066	l-0.131,0.066h-0.066h-0.132h-0.065h-0.658l0.329-1.449h0.527h0.132h0.197h0.132l0.065,0.066h0.066l0.131,0.066v0.066h0.066	l0.065,0.064v0.133v0.064V177.908L49.442,177.908z"/><path style="fill-rule:evenodd;clip-rule:evenodd;fill:#76777A;" d="M45.888,178.105v-0.066l0.066-0.131v-0.197v-0.133	l-0.066-0.064v-0.133l-0.066-0.131l-0.065-0.197l-0.132-0.066l-0.066-0.131l-0.131-0.133l-0.132-0.066l-0.132-0.064l-0.197-0.066	l-0.132-0.066h-0.263h-0.198h-0.197h-0.263h-1.448l-1.25,5.465h1.185l0.461-2.041h0.526h0.263h0.198h0.066l0.198-0.066h0.197	l0.131-0.066l0.198-0.064l0.197-0.133l0.132-0.064l0.131-0.066l0.066-0.066l0.132-0.131l0.132-0.133l0.131-0.197l0.066-0.131	l0.132-0.197l0.065-0.133l0.066-0.197V178.105L45.888,178.105z M44.769,177.973v0.133l-0.066,0.064v0.133l-0.065,0.066	l-0.066,0.131l-0.066,0.066l-0.066,0.064l-0.066,0.066l-0.065,0.066l-0.132,0.066l-0.065,0.064h-0.132l-0.066,0.066h-0.066	l-0.131,0.066h-0.198h-0.132h-0.329l0.395-1.713h0.33h0.131h0.066h0.132l0.131,0.066h0.131l0.066,0.066l0.132,0.066v0.064	l0.066,0.066l0.065,0.066v0.064l0.066,0.133V177.973L44.769,177.973z"/><path style="fill-rule:evenodd;clip-rule:evenodd;fill:#76777A;" d="M133.168,177.908v-0.133v-0.064l-0.066-0.133v-0.064	l-0.064-0.066l-0.066-0.133l-0.066-0.064v-0.066l-0.131-0.131l-0.066-0.066l-0.066-0.066l-0.064-0.064l-0.066-0.066l-0.066-0.066	l-0.064-0.066h-0.133l-0.064-0.064l-0.133-0.066h-0.066l-0.064-0.066l-0.264-0.064h-0.197l-0.197-0.066h-0.264h-0.197l-0.264,0.066	h-0.131h-0.066l-0.131,0.064h-0.133l-0.066,0.066h-0.131l-0.131,0.066l-0.066,0.064h-0.133l-0.131,0.066l-0.131,0.066l-0.066,0.066	l-0.131,0.064l-0.066,0.066l-0.131,0.131l-0.066,0.066l-0.133,0.066l-0.064,0.064l-0.066,0.133l-0.066,0.066l-0.131,0.131	l-0.066,0.066l-0.064,0.064l-0.066,0.133l-0.066,0.131l-0.066,0.066l-0.064,0.131l-0.066,0.133l-0.066,0.131v0.066l-0.064,0.064	l-0.066,0.199l-0.066,0.262l-0.066,0.197v0.264l-0.064,0.197v0.133v0.131l0.064,0.133v0.131v0.066v0.131l0.066,0.066v0.131	l0.066,0.066v0.131l0.066,0.066v0.066v0.064l0.064,0.066l0.066,0.066l0.066,0.064l0.064,0.133l0.066,0.066l0.066,0.064l0.066,0.066	l0.064,0.066h0.133l0.064,0.064l0.133,0.066h0.064l0.066,0.066l0.133,0.066h0.064l0.264,0.064h0.197h0.264h0.066h0.131h0.197h0.264	h0.066l0.131-0.064h0.131l0.133-0.066h0.131l0.066-0.066l0.131-0.066h0.133l0.066-0.064l0.131-0.066l0.066-0.066l0.131-0.064	l0.131-0.066l0.066-0.066l0.131-0.066l0.066-0.131l0.133-0.066l0.064-0.131l0.066-0.066l0.066-0.131l0.064-0.066l0.066-0.131	l0.066-0.066l0.131-0.131v-0.066l0.066-0.131l0.131-0.133v-0.131l0.066-0.133l0.066-0.197l0.064-0.264l0.066-0.197l0.066-0.262	v-0.264V178.5v-0.131v-0.133v-0.131v-0.066L133.168,177.908L133.168,177.908z M131.982,178.566v0.197v0.131v0.133l-0.064,0.262	l-0.066,0.199l-0.066,0.262l-0.131,0.133l-0.066,0.197l-0.131,0.197l-0.131,0.131l-0.133,0.133l-0.066,0.131l-0.131,0.133	l-0.131,0.064l-0.199,0.066l-0.131,0.066l-0.131,0.064l0,0l-0.133,0.066h-0.131h-0.197h-0.066h-0.066h-0.131l-0.197-0.066	l-0.133-0.064l-0.131-0.066l-0.066-0.131l-0.131-0.066l-0.066-0.133l-0.064-0.197l-0.066-0.131v-0.131v-0.133l-0.066-0.197v-0.197	l0.066-0.197v-0.264l0.066-0.197l0.064-0.197l0.133-0.197l0.064-0.197l0.066-0.199l0.131-0.131l0.133-0.197l0.197-0.131	l0.131-0.133l0.133-0.064l0.131-0.066l0.133-0.066l0.131-0.066h0.066l0.064-0.064h0.197h0.199h0.131h0.131l0.133,0.064l0.131,0.066	l0.133,0.066l0.064,0.066l0.066,0.064l0.131,0.133l0.066,0.131l0.066,0.197l0.064,0.197v0.133V178.566L131.982,178.566z"/><path style="fill-rule:evenodd;clip-rule:evenodd;fill:#76777A;" d="M138.303,177.184l-0.066-0.131l-0.066-0.066l-0.064-0.131	l-0.066-0.133l-0.131-0.066l-0.133-0.064l-0.131-0.066h-0.197l-0.133-0.066h-0.264h-0.131l-0.131-0.064h-0.133h-0.131h-0.264h-1.58	l-0.197,1.053l-0.986,4.477h0.986h0.197l0.527-2.305h0.197l0.131,0.066h0.066h0.131l0.066,0.064h0.133l0.064,0.066v0.066h0.066	v0.066l0.131,0.197v0.131l0.066,0.066v0.064l0.197,1.516h1.316l-0.395-2.041l-0.066-0.133v-0.131l-0.064-0.131l-0.066-0.066v-0.066	l-0.066-0.066h-0.066l-0.064-0.064h-0.066l0.066-0.066l0.197-0.066l0.197-0.064l0.197-0.133l0.133-0.064l0.131-0.133l0.066-0.066	l0.064-0.064l0.133-0.133l0.064-0.131l0.066-0.197l0.066-0.133l0.064-0.197v-0.131v-0.131v-0.133L138.303,177.184L138.303,177.184z M137.051,177.973v0.066v0.066l-0.064,0.131l-0.066,0.066l-0.066,0.131l-0.064,0.066l-0.066,0.066l-0.066,0.064h-0.064	l-0.133,0.066h-0.066l-0.131,0.066l0,0h-0.197h-0.066h-0.658l0.33-1.449h0.592h0.131h0.133h0.131l0.066,0.066h0.066l0.064,0.066	l0.066,0.066h0.066v0.064l0.064,0.133v0.064v0.133V177.973L137.051,177.973z"/><polygon style="fill-rule:evenodd;clip-rule:evenodd;fill:#76777A;" points="127.705,177.514 127.771,177.578 128.033,176.592	127.902,176.525 127.771,176.525 127.771,176.525 127.639,176.459 127.441,176.459 127.311,176.395 127.178,176.395	126.98,176.395 126.85,176.395 126.717,176.328 126.455,176.328 126.191,176.395 126.059,176.395 125.928,176.395 125.797,176.459	125.664,176.459 125.533,176.525 125.4,176.525 125.336,176.592 125.203,176.656 125.072,176.723 124.939,176.789 124.809,176.855	124.742,176.92 124.611,176.92 124.545,176.986 124.48,177.053 124.348,177.117 124.281,177.184 124.15,177.314 124.084,177.381	123.953,177.447 123.887,177.578 123.822,177.645 123.756,177.711 123.689,177.842 123.623,177.973 123.559,178.039	123.492,178.17 123.426,178.236 123.361,178.369 123.295,178.5 123.229,178.697 123.164,178.961 123.098,179.225 123.031,179.422	123.031,179.686 123.031,179.883 123.031,180.014 123.031,180.146 123.031,180.211 123.031,180.344 123.098,180.475	123.098,180.541 123.098,180.672 123.164,180.738 123.164,180.869 123.229,180.936 123.295,181.066 123.361,181.133	123.361,181.264 123.426,181.264 123.426,181.33 123.492,181.396 123.623,181.463 123.689,181.527 123.756,181.594 123.822,181.66	123.887,181.725 124.02,181.791 124.084,181.791 124.217,181.857 124.281,181.857 124.414,181.924 124.611,181.988	124.742,181.988 124.875,181.988 125.006,181.988 125.137,182.055 125.27,182.055 125.533,182.055 125.664,182.055	125.797,181.988 125.928,181.988 126.059,181.988 126.256,181.988 126.389,181.924 126.52,181.857 126.652,181.857	126.783,181.791 126.916,181.725 127.047,180.805 126.916,180.869 126.783,180.869 126.652,180.936 126.52,181.002	126.322,181.002 126.059,181.066 125.861,181.066 125.664,181.066 125.467,181.002 125.27,181.002 125.072,180.936	124.939,180.869 124.742,180.738 124.678,180.672 124.545,180.541 124.48,180.408 124.348,180.211 124.348,180.014	124.281,179.883 124.281,179.686 124.281,179.488 124.281,179.289 124.348,179.092 124.414,178.895 124.48,178.764	124.545,178.631 124.611,178.434 124.742,178.303 124.809,178.17 125.006,177.973 125.137,177.842 125.27,177.711 125.4,177.645	125.533,177.578 125.73,177.514 125.928,177.447 126.125,177.381 126.322,177.314 126.52,177.314 126.717,177.314 126.98,177.314	127.178,177.381 127.244,177.381 127.441,177.447 127.572,177.447 127.705,177.514	"/><polygon style="fill-rule:evenodd;clip-rule:evenodd;fill:#76777A;" points="77.548,180.869 77.285,181.924 77.548,181.924	80.642,181.924 80.839,181.002 78.667,181.002 78.997,179.553 80.971,179.553 81.234,178.631 79.194,178.631 79.457,177.381	81.695,177.381 81.893,176.459 78.536,176.459 77.548,180.869	"/><polygon style="fill-rule:evenodd;clip-rule:evenodd;fill:#76777A;" points="151.598,176.525 151.467,176.459 151.27,176.459	151.139,176.395 151.006,176.395 150.809,176.395 150.678,176.328 150.545,176.328 150.414,176.328 150.15,176.395	149.887,176.395 149.822,176.459 149.689,176.459 149.492,176.525 149.295,176.592 149.098,176.723 148.965,176.855	148.768,176.986 148.703,177.053 148.637,177.117 148.504,177.314 148.439,177.447 148.307,177.645 148.242,177.775	148.176,177.973 148.176,178.17 148.176,178.303 148.176,178.5 148.242,178.631 148.307,178.764 148.373,178.895 148.439,179.027	148.57,179.092 148.637,179.158 148.768,179.225 148.834,179.289 149.031,179.422 149.162,179.488 149.426,179.619	149.559,179.686 149.689,179.75 149.756,179.816 149.887,179.883 149.953,179.949 150.02,180.014 150.084,180.014 150.084,180.146	150.15,180.211 150.15,180.211 150.15,180.277 150.15,180.344 150.15,180.475 150.084,180.475 150.084,180.605 150.02,180.672	149.953,180.738 149.887,180.805 149.822,180.869 149.689,180.936 149.559,181.002 149.426,181.002 149.229,181.066	149.098,181.066 148.9,181.066 148.703,181.066 148.57,181.066 148.439,181.002 148.307,181.002 148.176,180.936 148.045,180.869	147.912,180.805 147.715,180.738 147.518,181.33 147.32,181.725 147.518,181.791 147.518,181.791 147.715,181.857 147.848,181.924	148.045,181.924 148.176,181.988 148.307,181.988 148.504,181.988 148.637,181.988 148.768,181.988 148.965,181.988	149.098,181.988 149.229,181.988 149.492,181.924 149.689,181.924 149.953,181.791 150.15,181.725 150.281,181.66 150.479,181.527	150.611,181.396 150.742,181.264 150.875,181.133 151.006,181.002 151.072,180.869 151.203,180.672 151.27,180.475 151.27,180.277	151.336,180.146 151.336,179.949 151.27,179.75 151.27,179.619 151.203,179.488 151.139,179.289 151.072,179.225 151.006,179.158	150.939,179.092 150.875,179.027 150.809,179.027 150.678,178.895 150.611,178.83 150.479,178.764 150.281,178.697 150.15,178.631	149.953,178.566 149.887,178.5 149.756,178.434 149.689,178.369 149.559,178.303 149.492,178.236 149.492,178.236 149.426,178.17	149.426,178.105 149.426,178.039 149.426,177.973 149.426,177.908 149.426,177.842 149.426,177.842 149.426,177.775	149.492,177.711 149.492,177.645 149.559,177.645 149.559,177.578 149.623,177.514 149.689,177.447 149.756,177.447	149.822,177.381 149.953,177.314 150.084,177.314 150.217,177.25 150.348,177.25 150.545,177.25 150.742,177.25 150.939,177.314	151.072,177.314 151.203,177.381 151.336,177.447 151.467,177.447 151.598,177.514 151.928,176.592 151.73,176.525	151.598,176.525	"/><polygon style="fill-rule:evenodd;clip-rule:evenodd;fill:#76777A;" points="145.279,177.381 147.451,177.381 147.518,177.117	147.648,176.459 147.518,176.459 144.293,176.459 143.041,181.924 143.041,181.924 146.465,181.924 146.662,181.002	144.424,181.002 144.752,179.553 146.729,179.553 146.99,178.631 144.951,178.631 145.279,177.381	"/><polygon style="fill-rule:evenodd;clip-rule:evenodd;fill:#76777A;" points="143.107,176.592 143.041,176.592 142.977,176.525	142.777,176.525 142.646,176.459 142.516,176.459 142.318,176.395 142.186,176.395 142.055,176.395 141.857,176.328	141.725,176.328 141.594,176.328 141.33,176.395 141.066,176.395 141.002,176.459 140.869,176.459 140.672,176.525	140.475,176.592 140.277,176.723 140.145,176.855 140.014,176.986 139.883,177.053 139.816,177.117 139.684,177.314	139.619,177.447 139.486,177.645 139.422,177.775 139.355,177.973 139.355,178.17 139.355,178.303 139.355,178.5 139.422,178.631	139.486,178.764 139.553,178.895 139.619,179.027 139.75,179.092 139.816,179.158 139.947,179.225 140.014,179.289	140.211,179.422 140.344,179.488 140.605,179.619 140.738,179.686 140.869,179.75 140.936,179.816 141.066,179.883	141.133,179.949 141.199,180.014 141.264,180.014 141.264,180.146 141.33,180.211 141.33,180.211 141.33,180.277 141.33,180.344	141.264,180.475 141.264,180.475 141.264,180.605 141.199,180.672 141.133,180.738 141.066,180.805 141.002,180.869	140.869,180.936 140.738,181.002 140.605,181.002 140.408,181.066 140.277,181.066 140.08,181.066 139.883,181.066 139.75,181.066	139.619,181.002 139.486,181.002 139.355,180.936 139.225,180.869 139.092,180.805 138.895,180.738 138.5,181.725 138.697,181.791	138.895,181.857 139.027,181.924 139.225,181.924 139.355,181.988 139.486,181.988 139.684,181.988 139.816,181.988	140.014,181.988 140.145,181.988 140.277,181.988 140.408,181.988 140.672,181.924 140.869,181.924 141.133,181.791	141.33,181.725 141.461,181.66 141.658,181.527 141.791,181.396 141.922,181.264 142.055,181.133 142.186,181.002 142.252,180.869	142.383,180.672 142.449,180.475 142.449,180.277 142.516,180.146 142.516,179.949 142.449,179.75 142.449,179.619	142.383,179.488 142.318,179.289 142.252,179.225 142.186,179.158 142.121,179.092 142.055,179.027 141.988,179.027	141.857,178.895 141.791,178.83 141.658,178.764 141.461,178.697 141.33,178.631 141.133,178.566 141.066,178.5 140.936,178.434	140.869,178.369 140.738,178.303 140.672,178.236 140.672,178.236 140.605,178.17 140.605,178.105 140.605,178.039	140.605,177.973 140.605,177.908 140.605,177.842 140.605,177.842 140.605,177.775 140.672,177.711 140.672,177.645	140.738,177.645 140.738,177.578 140.803,177.514 140.869,177.447 140.936,177.447 141.002,177.381 141.133,177.314	141.264,177.314 141.396,177.25 141.527,177.25 141.725,177.25 141.922,177.25 142.121,177.314 142.252,177.314 142.383,177.381	142.516,177.447 142.646,177.447 142.777,177.514 143.041,176.656 143.107,176.592	"/><polygon style="fill-rule:evenodd;clip-rule:evenodd;fill:#76777A;" points="98.939,176.395 97.756,176.395 96.571,181.924	99.928,181.924 100.125,181.002 97.887,181.002 98.939,176.395	"/><path style="fill-rule:evenodd;clip-rule:evenodd;fill:#76777A;" d="M93.609,176.459l-0.132,0.133l-3.291,5.332h1.185l0.724-1.252	h1.382h0.921l0.198,1.252h1.25l-0.921-5.465H93.609L93.609,176.459z M93.477,179.75h-0.79l0.79-1.316l0.461-0.855l0.329,2.172	H93.477L93.477,179.75z"/><polygon style="fill-rule:evenodd;clip-rule:evenodd;fill:#76777A;" points="84.657,179.619 87.421,179.619 87.619,178.764	84.854,178.764 84.657,179.619	"/><path style="fill-rule:evenodd;clip-rule:evenodd;fill:#76777A;" d="M105.193,178.105h0.066v-0.197v-0.197v-0.133l-0.066-0.064	v-0.133l-0.066-0.131l-0.064-0.197l-0.066-0.066l-0.131-0.131l-0.066-0.133l-0.197-0.066l-0.133-0.064l-0.131-0.066l-0.197-0.066	h-0.197h-0.197h-0.264h-0.264h-1.447l-1.186,5.465h1.119l0.461-2.041h0.527h0.262h0.264l0,0l0.197-0.066h0.197l0.197-0.066	l0.133-0.064l0.197-0.133l0.197-0.064l0.066-0.066l0.131-0.066l0.133-0.131l0.131-0.133l0.066-0.197l0.131-0.131l0.066-0.197	l0.064-0.133l0.066-0.197V178.105L105.193,178.105z M104.074,177.973v0.133l-0.066,0.064v0.133l-0.064,0.066v0.131l-0.066,0.066	l-0.066,0.064l-0.064,0.066l-0.133,0.066l-0.064,0.066l-0.133,0.064h-0.066l-0.131,0.066l0,0l-0.197,0.066h-0.197h-0.131h-0.33	l0.395-1.713h0.33h0.131h0.066h0.197l0.131,0.066h0.066l0.131,0.066l0.066,0.066l0.066,0.064v0.066l0.064,0.066v0.064l0.066,0.133	V177.973L104.074,177.973z"/><polygon style="fill-rule:evenodd;clip-rule:evenodd;fill:#76777A;" points="116.977,179.619 119.74,179.619 119.938,178.764	117.174,178.764 116.977,179.619	"/><polygon style="fill-rule:evenodd;clip-rule:evenodd;fill:#76777A;" points="113.75,176.525 113.619,176.459 113.488,176.459	113.289,176.395 113.158,176.395 112.961,176.395 112.828,176.328 112.697,176.328 112.566,176.328 112.303,176.395	112.105,176.395 111.973,176.459 111.842,176.459 111.645,176.525 111.447,176.592 111.25,176.723 111.117,176.855	110.986,176.986 110.854,177.053 110.789,177.117 110.656,177.314 110.525,177.447 110.459,177.645 110.395,177.775	110.328,177.973 110.328,178.17 110.328,178.303 110.328,178.5 110.395,178.631 110.459,178.764 110.525,178.895 110.592,179.027	110.723,179.092 110.789,179.158 110.92,179.225 110.986,179.289 111.184,179.422 111.381,179.488 111.512,179.619	111.711,179.686 111.842,179.75 111.908,179.816 112.039,179.883 112.17,179.949 112.17,180.014 112.236,180.014 112.236,180.146	112.303,180.211 112.303,180.211 112.303,180.277 112.303,180.344 112.303,180.475 112.236,180.475 112.236,180.605	112.17,180.672 112.105,180.738 112.039,180.805 111.973,180.869 111.842,180.936 111.711,181.002 111.578,181.002	111.381,181.066 111.25,181.066 111.051,181.066 110.854,181.066 110.723,181.066 110.592,181.002 110.459,181.002	110.328,180.936 110.195,180.869 110.064,180.805 109.867,180.738 109.604,181.33 109.473,181.725 109.604,181.791 109.67,181.791	109.867,181.857 110.064,181.924 110.195,181.924 110.328,181.988 110.459,181.988 110.592,181.988 110.789,181.988	110.986,181.988 111.117,181.988 111.25,181.988 111.381,181.988 111.645,181.924 111.842,181.924 112.105,181.791	112.303,181.725 112.434,181.66 112.631,181.527 112.764,181.396 112.895,181.264 113.092,181.133 113.158,181.002	113.289,180.869 113.355,180.672 113.422,180.475 113.488,180.277 113.488,180.146 113.488,179.949 113.488,179.75	113.422,179.619 113.355,179.488 113.289,179.289 113.225,179.225 113.158,179.158 113.092,179.092 113.025,179.027	112.961,179.027 112.828,178.895 112.764,178.83 112.631,178.764 112.5,178.697 112.303,178.631 112.17,178.566 112.039,178.5	111.908,178.434 111.775,178.369 111.711,178.303 111.645,178.236 111.645,178.236 111.578,178.17 111.578,178.105	111.578,178.039 111.578,177.973 111.578,177.908 111.578,177.842 111.578,177.842 111.578,177.775 111.645,177.711	111.645,177.645 111.711,177.645 111.711,177.578 111.775,177.514 111.842,177.447 111.908,177.447 112.039,177.381	112.105,177.314 112.236,177.314 112.369,177.25 112.566,177.25 112.697,177.25 112.895,177.25 113.158,177.314 113.225,177.314	113.355,177.381 113.488,177.447 113.619,177.447 113.75,177.514 114.014,176.592 113.883,176.525 113.75,176.525	"/><polygon style="fill-rule:evenodd;clip-rule:evenodd;fill:#76777A;" points="107.365,177.381 109.604,177.381 109.604,177.117	109.801,176.459 109.604,176.459 106.443,176.459 105.193,181.857 105.193,181.924 105.193,181.924 108.551,181.924	108.814,181.002 106.576,181.002 106.904,179.553 108.945,179.553 109.143,178.631 107.104,178.631 107.365,177.381	"/><polygon style="fill-rule:evenodd;clip-rule:evenodd;fill:#76777A;" points="45.835,169.438 43.685,169.438 44.907,160.387	47.032,160.387 45.835,169.438	"/><path style="fill-rule:evenodd;clip-rule:evenodd;fill:#76777A;" d="M55.908,162.773c-0.878-0.502-1.471-0.771-2.097-0.771	c-0.541,0-0.944,0.322-0.944,0.758c0,0.385,0.276,0.754,1.124,1.383c1.308,0.967,1.711,1.781,1.711,2.729	c0,0.809-0.282,1.555-0.835,2.072c-0.564,0.527-1.085,0.822-2.108,0.822c-1.363,0-2.469-0.447-3.169-0.914l0.44-1.879	c0.339,0.211,0.51,0.346,0.935,0.564c0.589,0.301,0.938,0.441,1.464,0.441c0.783,0,1.09-0.475,1.09-0.877	c0-0.445-0.372-0.926-1.328-1.666c-0.649-0.504-1.494-1.234-1.494-2.613c0-1.266,1.146-2.611,3.002-2.611	c0.992,0,2.049,0.48,2.477,0.727L55.908,162.773L55.908,162.773z"/><path style="fill-rule:evenodd;clip-rule:evenodd;fill:#76777A;" d="M30.174,162.387c-0.584-0.148-0.935-0.188-1.577-0.188	c-2.289,0-3.804,1.285-3.804,3.225c0,1.387,0.749,2.338,2.246,2.338c1.229,0,2.274-0.627,2.887-1.02l-0.344,2.379	c-0.768,0.396-1.695,0.654-2.699,0.654c-2.833,0-4.318-1.762-4.318-4.244c0-3.232,2.228-5.396,5.952-5.396	c0.792,0,1.146,0.051,1.987,0.26L30.174,162.387L30.174,162.387z"/><path style="fill-rule:evenodd;clip-rule:evenodd;fill:#76777A;" d="M40.375,169.455h-2.189l-0.277-1.629h-2.563l-0.718,1.629	h-2.205l4.111-9.07h2.175L40.375,169.455L40.375,169.455z M37.737,166.182c-0.265-0.871-0.425-3.334-0.425-3.334	s-0.92,2.588-1.335,3.334H37.737L37.737,166.182z"/><path style="fill-rule:evenodd;clip-rule:evenodd;fill:#76777A;" d="M65.079,162.77c-0.877-0.502-1.471-0.77-2.095-0.77	c-0.54,0-0.944,0.32-0.944,0.756c0,0.387,0.277,0.756,1.123,1.383c1.309,0.969,1.713,1.781,1.713,2.729	c0,0.809-0.283,1.557-0.839,2.074c-0.562,0.527-1.083,0.82-2.104,0.82c-1.362,0-2.47-0.447-3.17-0.912l0.439-1.879	c0.338,0.211,0.511,0.344,0.938,0.562c0.587,0.301,0.936,0.443,1.46,0.443c0.787,0,1.093-0.473,1.093-0.879	c0-0.443-0.374-0.926-1.328-1.664c-0.652-0.504-1.495-1.234-1.495-2.613c0-1.268,1.146-2.611,3.001-2.611	c0.992,0,2.051,0.479,2.478,0.723L65.079,162.77L65.079,162.77z"/><polygon style="fill-rule:evenodd;clip-rule:evenodd;fill:#76777A;" points="75.097,162.258 71.519,162.258 71.3,163.834	74.589,163.834 74.329,165.75 71.042,165.75 70.799,167.562 75.154,167.562 74.885,169.451 68.371,169.451 69.602,160.377	75.343,160.377 75.097,162.258	"/><polygon style="fill-rule:evenodd;clip-rule:evenodd;fill:#76777A;" points="104.652,162.26 101.076,162.26 100.857,163.834	104.146,163.834 103.885,165.75 100.6,165.75 100.355,167.564 104.709,167.564 104.439,169.453 97.928,169.453 99.158,160.377	104.898,160.377 104.652,162.26	"/><polygon style="fill-rule:evenodd;clip-rule:evenodd;fill:#76777A;" points="170.322,162.256 166.744,162.256 166.525,163.834	169.812,163.834 169.551,165.75 166.266,165.75 166.023,167.561 170.379,167.561 170.107,169.451 163.596,169.451 164.828,160.375	170.568,160.375 170.322,162.256	"/><path style="fill-rule:evenodd;clip-rule:evenodd;fill:#76777A;" d="M124.441,169.451h-2.188l-0.277-1.627h-2.562l-0.719,1.627	h-2.205l4.111-9.068h2.174L124.441,169.451L124.441,169.451z M121.805,166.18c-0.266-0.871-0.424-3.334-0.424-3.334	s-0.922,2.588-1.338,3.334H121.805L121.805,166.18z"/><path style="fill-rule:evenodd;clip-rule:evenodd;fill:#76777A;" d="M86.268,160.385c1.858,0,2.265,0.146,2.985,0.516	c1.38,0.705,2.159,2.078,2.159,3.877c0,1.482-0.364,2.449-1.108,3.299c-0.757,0.863-2.16,1.35-2.995,1.363	c-0.213,0.004-1.452,0.01-1.452,0.01l-2.947-0.014l1.222-9.051H86.268L86.268,160.385z M85.297,167.57c0,0,0.606,0,0.982,0	c0.625,0,1.645-0.135,2.2-0.762c0.473-0.537,0.705-1.084,0.705-2.025c0-0.861-0.319-1.457-0.626-1.738	c-0.459-0.42-0.906-0.67-1.914-0.67h-0.61L85.297,167.57L85.297,167.57z"/><polygon style="fill-rule:evenodd;clip-rule:evenodd;fill:#76777A;" points="94.447,160.371 93.317,162.77 94.624,162.77	97.045,160.371 94.447,160.371	"/><path style="fill-rule:evenodd;clip-rule:evenodd;fill:#76777A;" d="M111.49,160.377h0.926c1.574,0,2.953,1.018,2.953,2.674	c0,1.047-0.6,3.004-3.023,3.002h-0.893h-0.463l-0.465,3.387h-2.18l1.24-9.062H111.49L111.49,160.377z M111.209,164.43h0.295	c0.477,0,0.715-0.047,0.963-0.168c0.279-0.137,0.664-0.461,0.668-1.012c0.002-0.322-0.08-0.553-0.295-0.75	c-0.275-0.246-0.512-0.328-1.086-0.328h-0.23L111.209,164.43L111.209,164.43z"/><path style="fill-rule:evenodd;clip-rule:evenodd;fill:#76777A;" d="M130.99,160.379h0.818c2.078,0,2.801,1.559,2.801,2.664	c0,0.854-0.398,1.602-0.896,1.943c-0.35,0.24-0.537,0.33-0.811,0.432l-0.057,0.02c0.525,0.289,0.906,0.934,1.258,1.68l1.145,2.328	h-2.4l-0.895-1.895c-0.574-1.213-0.758-1.529-1.201-1.725c-0.176-0.076-0.287-0.094-0.408-0.092h-0.137l-0.492,3.711h-2.119	l1.219-9.066H130.99L130.99,160.379z M130.414,164.191h0.449c0.533,0,0.854-0.064,1.039-0.172c0.355-0.209,0.545-0.578,0.545-0.887	c0-0.275-0.131-0.523-0.299-0.686c-0.209-0.207-0.615-0.332-1.195-0.332h-0.26L130.414,164.191L130.414,164.191z"/><path style="fill-rule:evenodd;clip-rule:evenodd;fill:#76777A;" d="M146.799,162.43c-0.904-0.174-1.217-0.248-2.035-0.248	c-3.502,0-4.41,1.979-4.41,3.143c0,1.598,1.244,2.463,2.908,2.463c0.455,0,0.615-0.045,0.766-0.084l0.205-1.447h-1.766l0.242-1.705	h3.84l-0.672,4.842c-0.857,0.176-1.754,0.27-2.611,0.27c-1.861,0-3.016-0.457-3.965-1.355c-0.814-0.77-1.15-1.668-1.15-2.918	c0-3.039,2.436-5.193,6.352-5.193c1.049,0,2.023,0.102,2.578,0.314L146.799,162.43L146.799,162.43z"/><polygon style="fill-rule:evenodd;clip-rule:evenodd;fill:#76777A;" points="153.355,165.145 152.82,169.436 150.74,169.436	151.941,160.387 153.99,160.387 156.225,164.42 157.137,166.322 157.297,164.555 157.842,160.387 159.924,160.387 158.707,169.436	156.672,169.436 154.559,165.455 153.533,163.324 153.355,165.145	"/><polygon style="fill-rule:evenodd;clip-rule:evenodd;fill:#CC2131;" points="22.986,171.562 170.123,171.562 169.32,172.832	22.188,172.832 22.986,171.562	"/></g></svg>