<?xml version="1.0" encoding="iso-8859-1"?>
<!-- Generator: Adobe Illustrator 16.0.0, SVG Export Plug-In . SVG Version: 6.00 Build 0)  -->
<!DOCTYPE svg PUBLIC "-//W3C//DTD SVG 1.1//EN" "http://www.w3.org/Graphics/SVG/1.1/DTD/svg11.dtd">
<svg version="1.1" id="Layer_1" xmlns="http://www.w3.org/2000/svg" xmlns:xlink="http://www.w3.org/1999/xlink" x="0px" y="0px"
	 width="475.632px" height="550.08px" viewBox="0 0 475.632 550.08" style="enable-background:new 0 0 475.632 550.08;"
	 xml:space="preserve">
<g>
	<path style="fill:#B01E24;" d="M0.864,0v472.391h472.392V0H0.864L0.864,0z M385.56,437.975L385.56,437.975H187.992l8.352-15.406
		h195.912L385.56,437.975L385.56,437.975z M341.136,212.112L341.136,212.112l11.377-6.696l30.671,48.456l-43.344,27.361
		l-6.553-9.361l32.616-21.671L341.136,212.112L341.136,212.112z M341.855,230.832L341.855,230.832l0.647,1.152l0.433,1.296
		l0.505,1.224l0.287,1.368l0.144,1.296v1.296v1.368l-0.144,1.296l-0.287,1.296l-0.505,1.368l-0.433,1.225l-0.647,1.224l-0.72,1.008
		l-0.791,1.152l-0.865,0.936l-0.864,0.792l-0.216,0.144l-1.008,0.792l-1.152,0.72l-1.224,0.72l-1.225,0.432l-1.224,0.36
		l-1.295,0.288l-1.369,0.216l-1.296,0.072h-0.288l-1.152-0.072l-1.296-0.216l-1.368-0.288l-1.224-0.36l-1.224-0.432l-1.225-0.72
		l-1.15-0.72l-1.009-0.792l-0.937-0.937L316.8,248.4l-0.864-1.152l-0.648-1.008l-0.647-1.224l-0.504-1.225l-0.504-1.368
		l-0.217-1.296l-0.143-1.296l-0.073-1.368l0.073-1.296l0.143-1.296l0.217-1.368l0.504-1.224l0.504-1.296l0.647-1.152l0.648-1.151
		l0.864-1.008l0.936-1.08l0.937-0.792l1.009-0.864l1.15-0.792l1.225-0.576l1.224-0.504l1.224-0.432l1.368-0.288l1.296-0.144h1.152
		h0.288h1.296l1.369,0.144l1.295,0.288l1.224,0.432l1.225,0.504l1.224,0.576l1.152,0.792l1.008,0.864l0.216,0.144l0.864,0.648
		l0.865,1.08l0.791,1.008L341.855,230.832L341.855,230.832z M386.784,325.08L386.784,325.08l-6.984,14.256l-109.943,0.215
		l8.639-14.471H386.784L386.784,325.08z M392.399,58.464L392.399,58.464l-3.887,2.16l-6.841,2.448l-6.769,2.664l-6.696,2.664
		l-6.694,2.664l-3.24,1.368l-3.529,1.439l-6.552,2.809l-6.624,2.952L338.615,81l-3.672,1.656l-6.552,3.096l-0.072,0.073
		l-6.408,3.168l-6.552,3.24l-6.408,3.312l-6.336,3.385l-6.408,3.455l-6.264,3.529l-6.335,3.671l-6.264,3.672L271.224,117
		l-6.12,3.816l-6.12,3.888l-6.048,3.96l-6.048,4.104l-5.977,4.032l-5.903,4.176l-5.832,4.248l-5.616,4.176l-0.144,0.144l-5.76,4.393
		l-5.759,4.392l-7.776,5.543l-7.344,5.473h0.936h25.848h19.152l-12.096,16.991h-7.056h-45.792l-4.248,4.32l-4.248,4.536
		l-4.104,4.536l-4.032,4.68l-3.816,5.184h58.392l-11.592,21.024h-60.696l-2.232,4.104l-2.304,4.176l-2.016,4.032l-4.032,8.856
		h55.296l-9.144,19.944h-53.136l-1.944,3.672l-1.8,3.742l-1.584,3.889l-1.512,3.961l-1.368,3.959l-1.152,4.104l-0.936,4.105
		l-0.72,4.104l-0.576,4.104l-0.504,4.32l-0.287,4.104l-0.072,4.248l0.216,4.176l0.288,4.248l0.36,4.176l0.648,4.178l0.864,4.104
		l0.936,4.104l1.152,4.031l1.296,3.961l1.512,3.959l1.728,3.889l1.8,3.816l1.944,3.672l2.16,3.672l2.305,3.527l2.448,3.385
		l2.592,3.312l2.736,3.24l2.808,3.096l3.024,3.023l3.024,2.809l3.312,2.664l3.312,2.52l168.12-253.656l6.336,4.968l7.488,5.832
		l-7.488,11.448L156.384,431.207l-3.888-2.375l-3.672-2.592l-3.6-2.521l-3.528-2.734l-3.456-2.953l-3.384-2.879l-3.24-3.168
		l-3.168-3.098l-3.024-3.311l-2.951-3.385l-2.809-3.527L117,395.207l-2.664-3.672l-2.448-3.816l-2.232-3.744l-2.304-3.887
		l-2.088-3.961l-1.872-4.104l-1.8-4.176l-1.728-4.104l-1.512-4.176l-1.368-4.248l-1.225-4.393l-1.151-4.32l-0.937-4.32l-0.792-4.391
		l-0.647-4.393l-0.577-4.465l-0.36-4.535l-0.216-4.465l-0.072-4.391l0.072-4.537l0.216-4.463l0.36-4.465l0.577-4.393l0.647-4.463
		l0.864-4.465l0.936-4.32l1.08-4.391l1.296-4.248l1.296-4.176H33.336l13.608-19.944h57.96l1.8-4.32l1.944-4.032l2.232-4.176
		l2.232-4.248l2.592-4.392h-56.16l12.96-21.024h57.168l3.456-4.68l3.528-4.752l3.672-4.68l3.672-4.608l3.744-4.536H83.736
		l13.537-16.991h66.023l2.16-1.8l6.624-5.616l4.32-3.456l4.464-3.528l4.464-3.456l4.536-3.528l4.536-3.383l4.536-3.384l4.537-3.312
		l4.535-3.456l4.608-3.168l4.608-3.312l4.68-3.24l1.656-1.152l3.024-2.016l4.752-3.168l4.752-3.096l4.607-3.097l4.752-3.023
		l4.824-3.024l4.825-2.953l4.822-2.951l4.896-2.88l4.824-2.952l4.896-2.809l4.896-2.808l4.968-2.809l4.969-2.663l5.039-2.736
		l4.968-2.592l5.04-2.664l4.969-2.592l5.111-2.52l5.04-2.449l5.112-2.591l3.672-1.656l1.441-0.648l5.183-2.52l3.672-1.656
		l1.44-0.648l5.184-2.304l5.112-2.232l5.184-2.304l2.737-1.152l2.519-1.008l5.257-2.16l5.184-2.16l5.256-2.088l5.328-2.087
		l5.256-2.016l5.328-1.944l5.256-2.016l5.4-1.872l5.328-1.8l5.328-1.872L392.399,58.464L392.399,58.464z"/>
	<polygon style="fill:#9C9EA0;" points="141.264,535.031 141.696,533.232 141.912,532.08 141.696,532.08 131.112,532.08 
		128.088,545.76 127.224,549.791 128.088,549.791 138.096,549.791 138.744,546.768 131.616,546.768 132.624,542.16 139.104,542.16 
		139.824,539.135 133.344,539.135 134.208,535.031 141.264,535.031 	"/>
	<polygon style="fill:#9C9EA0;" points="154.08,544.824 149.976,532.08 145.368,532.08 141.696,548.639 141.408,549.791 
		141.696,549.791 144.936,549.791 147.744,537.047 151.776,549.791 156.384,549.791 160.344,532.08 156.888,532.08 154.08,544.824 	
		"/>
	<polygon style="fill:#9C9EA0;" points="93.168,509.975 93.888,509.832 95.184,509.688 96.408,509.4 97.56,508.967 98.64,508.535 
		99.576,508.031 100.512,507.455 100.872,507.168 101.304,506.807 102.024,506.16 102.672,505.367 103.32,504.576 103.824,503.711 
		104.256,502.848 104.616,501.768 104.904,500.832 104.976,499.896 105.048,498.887 104.904,497.951 104.688,497.16 104.4,496.367 
		103.968,495.576 103.68,495.143 103.392,494.783 102.96,494.424 102.6,494.064 102.096,493.775 101.664,493.416 101.088,493.127 
		100.872,492.984 100.44,492.768 99.648,492.336 98.712,491.904 97.848,491.543 97.2,491.184 96.552,490.824 96.048,490.535 
		95.616,490.176 95.256,489.816 95.112,489.6 94.968,489.312 94.824,489.096 94.824,488.807 94.752,488.447 94.752,488.088 
		94.824,487.871 94.824,487.584 94.968,487.295 95.04,487.008 95.184,486.791 95.4,486.504 95.544,486.215 95.832,485.928 
		96.264,485.639 96.624,485.352 97.128,485.064 97.704,484.848 98.352,484.703 99.144,484.559 100.008,484.488 100.872,484.559 
		100.944,484.559 101.952,484.631 103.176,484.848 103.752,484.992 104.4,485.135 105.048,485.424 105.768,485.639 106.416,485.928 
		108.072,480.959 107.352,480.744 106.56,480.527 105.84,480.312 104.976,480.168 104.112,480.023 103.248,479.879 102.456,479.807 
		101.664,479.736 100.872,479.736 100.8,479.736 100.008,479.736 98.64,479.807 97.416,480.023 96.768,480.168 96.192,480.312 
		95.112,480.744 94.176,481.176 93.24,481.68 92.376,482.256 91.512,482.904 91.08,483.336 90.648,483.768 89.928,484.703 
		89.352,485.639 88.92,486.648 88.56,487.512 88.344,488.375 88.2,489.24 88.2,490.104 88.272,491.039 88.488,491.904 
		88.776,492.551 89.208,493.199 89.712,493.848 90.288,494.496 90.72,494.783 91.224,495.143 91.8,495.504 92.592,495.936 
		93.672,496.512 94.68,497.016 95.473,497.447 96.12,497.807 96.624,498.096 97.344,498.6 97.848,498.959 98.136,499.248 
		98.28,499.463 98.424,499.752 98.64,500.184 98.712,500.471 98.712,500.76 98.712,501.119 98.568,501.551 98.496,501.912 
		98.28,502.271 97.992,502.775 97.632,503.207 97.272,503.496 96.768,503.855 96.192,504.215 95.473,504.504 94.752,504.791 
		93.888,504.936 93.024,505.08 92.016,505.08 90.936,505.008 90.216,504.863 89.496,504.719 88.776,504.504 88.128,504.287 
		87.408,504.072 86.616,503.711 85.68,503.279 83.664,508.607 84.672,508.896 85.608,509.184 86.544,509.4 87.408,509.615 
		88.2,509.76 88.992,509.832 89.784,509.975 90.648,509.975 91.512,510.047 92.376,509.975 93.168,509.975 	"/>
	<polygon style="fill:#9C9EA0;" points="176.616,535.68 177.408,532.656 176.904,532.439 176.616,532.367 176.473,532.367 
		176.04,532.223 175.536,532.08 175.032,532.008 174.6,531.936 174.096,531.863 173.592,531.863 173.088,531.791 172.296,531.791 
		171.432,531.863 171,531.936 170.64,532.008 170.208,532.08 169.776,532.223 169.416,532.295 168.984,532.439 168.552,532.584 
		168.192,532.729 167.76,532.943 167.4,533.16 167.112,533.303 166.752,533.52 166.464,533.664 166.104,533.879 165.816,534.096 
		165.528,534.312 165.24,534.527 164.952,534.816 164.664,535.104 164.376,535.32 164.088,535.68 163.872,535.967 163.584,536.256 
		163.368,536.543 163.152,536.904 162.936,537.191 162.72,537.551 162.504,537.912 162.36,538.271 162.144,538.631 161.856,539.424 
		161.64,540.143 161.424,540.936 161.352,541.656 161.208,542.447 161.208,543.168 161.208,543.6 161.208,543.959 161.208,544.248 
		161.28,544.607 161.352,544.967 161.424,545.328 161.496,545.615 161.64,545.975 161.784,546.264 161.856,546.623 162.072,546.912 
		162.216,547.199 162.432,547.488 162.648,547.703 162.864,547.92 163.08,548.207 163.296,548.424 163.584,548.639 163.872,548.855 
		164.16,549 164.448,549.215 164.736,549.287 165.024,549.432 165.384,549.576 165.672,549.648 166.32,549.863 166.752,549.936 
		167.184,550.008 167.616,550.008 168.048,550.08 168.552,550.08 169.416,550.08 169.848,550.08 170.28,550.008 170.712,549.936 
		171.072,549.936 171.576,549.863 172.008,549.719 172.44,549.576 172.872,549.504 173.376,549.287 173.736,549.143 
		174.168,546.119 173.736,546.264 173.304,546.408 172.944,546.551 172.44,546.695 171.792,546.84 171,546.912 170.352,546.984 
		169.704,546.912 169.056,546.84 168.408,546.695 167.904,546.551 167.4,546.264 166.896,545.975 166.464,545.615 166.104,545.184 
		165.816,544.752 165.6,544.176 165.384,543.672 165.312,543.096 165.312,542.447 165.312,541.871 165.384,541.223 165.528,540.648 
		165.672,540.072 165.888,539.496 166.104,539.135 166.32,538.559 166.752,538.055 167.112,537.551 167.544,537.047 
		168.048,536.615 168.48,536.256 168.84,535.967 169.416,535.752 169.92,535.463 170.568,535.248 171.216,535.104 171.864,534.959 
		172.512,534.959 173.16,534.887 173.88,534.959 174.6,535.104 174.96,535.104 175.392,535.248 175.752,535.391 176.184,535.535 
		176.616,535.68 	"/>
	<polygon style="fill:#9C9EA0;" points="113.976,509.184 114.912,509.4 115.776,509.615 116.568,509.76 117.36,509.832 
		118.152,509.975 119.016,509.975 119.88,510.047 120.744,509.975 121.608,509.975 122.256,509.832 123.552,509.688 124.776,509.4 
		125.928,508.967 127.008,508.535 127.944,508.031 128.088,507.959 128.808,507.455 129.672,506.807 130.392,506.16 
		131.112,505.367 131.688,504.576 132.192,503.711 132.624,502.848 132.984,501.768 133.272,500.832 133.416,499.896 
		133.416,498.887 133.272,497.951 133.128,497.16 132.768,496.367 132.336,495.576 132.048,495.143 131.688,494.783 
		131.328,494.424 130.968,494.064 130.536,493.775 130.032,493.416 129.456,493.127 128.808,492.768 128.088,492.408 
		127.944,492.336 127.08,491.904 126.216,491.543 125.568,491.184 124.92,490.824 124.416,490.535 123.984,490.176 123.624,489.816 
		123.48,489.6 123.336,489.312 123.192,489.096 123.12,488.807 123.12,488.447 123.12,488.088 123.12,487.871 123.192,487.584 
		123.336,487.295 123.408,487.008 123.624,486.791 123.768,486.504 123.984,486.215 124.272,485.928 124.632,485.639 
		124.992,485.352 125.496,485.064 126.072,484.848 126.72,484.703 127.512,484.559 128.088,484.559 128.376,484.488 
		129.312,484.559 130.32,484.631 131.473,484.848 132.12,484.992 132.768,485.135 133.488,485.424 134.136,485.639 134.784,485.928 
		136.44,480.959 135.72,480.744 135,480.527 134.136,480.312 133.344,480.168 132.48,480.023 131.616,479.879 130.824,479.807 
		129.96,479.736 129.168,479.736 128.448,479.736 128.088,479.736 127.008,479.807 125.784,480.023 125.208,480.168 124.56,480.312 
		123.48,480.744 122.473,481.176 121.608,481.68 120.744,482.256 119.88,482.904 119.448,483.336 119.016,483.768 118.368,484.703 
		117.72,485.639 117.288,486.648 116.928,487.512 116.712,488.375 116.568,489.24 116.568,490.104 116.64,491.039 116.856,491.904 
		117.144,492.551 117.504,493.199 118.08,493.848 118.656,494.496 119.088,494.783 119.592,495.143 120.168,495.504 
		121.032,495.936 122.04,496.512 123.048,497.016 123.84,497.447 124.488,497.807 124.992,498.096 125.712,498.6 126.216,498.959 
		126.432,499.248 126.648,499.463 126.792,499.752 127.008,500.184 127.08,500.471 127.08,500.76 127.008,501.119 126.936,501.551 
		126.864,501.912 126.648,502.271 126.36,502.775 126,503.207 125.712,503.496 125.136,503.855 124.56,504.215 123.912,504.504 
		123.12,504.791 122.256,504.936 121.392,505.08 120.384,505.08 119.304,505.008 118.584,504.863 117.864,504.719 117.144,504.504 
		116.496,504.287 115.776,504.072 114.984,503.711 113.976,503.279 112.032,508.607 113.04,508.896 113.976,509.184 	"/>
	<polygon style="fill:#9C9EA0;" points="129.024,532.008 128.088,532.008 125.28,532.008 117.576,545.975 116.136,532.008 
		112.104,532.008 114.336,549.791 118.872,549.791 128.088,533.592 129.024,532.008 	"/>
	<path style="fill:#9C9EA0;" d="M110.016,537.48l-0.072-0.361l-0.072-0.287l-0.072-0.361l-0.072-0.287l-0.072-0.359l-0.144-0.289
		l-0.144-0.287l-0.144-0.289l-0.144-0.287l-0.216-0.289l-0.216-0.287l-0.216-0.217l-0.216-0.215L108,533.447l-0.288-0.215
		l-0.216-0.217l-0.288-0.145l-0.288-0.143l-0.288-0.145l-0.288-0.145l-0.359-0.145l-0.289-0.143l-0.648-0.145l-0.72-0.145
		l-0.72-0.072h-0.648h-0.72l-0.792,0.072l-0.576,0.145h-0.144l-0.432,0.072l-0.36,0.072l-0.36,0.143l-0.36,0.145l-0.36,0.145
		l-0.36,0.145l-0.36,0.143l-0.359,0.217l-0.36,0.145l-0.36,0.215l-0.288,0.217l-0.36,0.215l-0.288,0.289l-0.288,0.215l-0.359,0.289
		l-0.289,0.287l-0.216,0.289l-0.288,0.287l-0.288,0.361l-0.216,0.287l-0.216,0.287l-0.216,0.361l-0.216,0.287l-0.216,0.361
		l-0.216,0.359l-0.216,0.432l-0.144,0.359l-0.144,0.361l-0.288,0.719l-0.216,0.793l-0.144,0.791l-0.144,0.793l-0.072,0.719v0.434
		v0.359v0.359l0.072,0.361v0.359l0.072,0.359l0.072,0.289l0.072,0.359l0.144,0.287l0.072,0.289l0.144,0.359l0.144,0.289l0.216,0.287
		l0.144,0.217l0.216,0.215l0.216,0.289l0.216,0.215l0.216,0.217l0.216,0.217l0.288,0.215l0.288,0.145l0.288,0.145l0.288,0.215
		l0.289,0.072l0.288,0.145l0.359,0.145l0.288,0.07l0.72,0.145l0.72,0.072l0.72,0.072h0.36h0.36l0.72-0.072l0.792-0.072h0.144
		l0.576-0.072l0.36-0.143l0.36-0.072l0.36-0.145l0.36-0.145l0.36-0.145l0.36-0.143l0.359-0.217l0.36-0.145l0.36-0.215l0.288-0.289
		l0.36-0.215l0.288-0.217l0.36-0.215l0.288-0.289l0.288-0.287l0.288-0.289l0.288-0.287l0.216-0.361l0.288-0.287l0.216-0.359
		l0.216-0.289l0.216-0.359l0.216-0.359l0.144-0.361l0.216-0.359l0.144-0.359l0.144-0.434l0.289-0.719l0.215-0.793l0.216-0.791
		l0.072-0.721l0.072-0.791l0.072-0.361v-0.359l-0.072-0.432V537.48L110.016,537.48z M106.056,539.639L106.056,539.639l-0.072,0.434
		l-0.072,0.359l-0.144,0.791l-0.216,0.721l-0.288,0.721l-0.288,0.576l-0.288,0.576l-0.36,0.504l-0.432,0.576l-0.36,0.432
		l-0.288,0.359l-0.432,0.359l-0.504,0.289l-0.504,0.287l-0.432,0.217l-0.36,0.145l-0.144,0.07l-0.36,0.072l-0.504,0.072h-0.504
		h-0.288H99l-0.504-0.072l-0.432-0.215l-0.432-0.145L97.2,546.48l-0.288-0.289l-0.36-0.359l-0.288-0.432l-0.216-0.504l-0.144-0.434
		l-0.072-0.432l-0.072-0.504v-0.576v-0.576l0.072-0.791l0.144-0.721l0.144-0.721l0.216-0.646l0.288-0.648l0.288-0.576l0.36-0.576
		l0.359-0.504l0.432-0.504l0.432-0.504L99,535.824l0.432-0.289l0.504-0.287l0.288-0.217l0.504-0.145l0.144-0.07l0.432-0.072
		l0.504-0.072l0.504-0.072l0.504,0.072l0.503,0.072l0.432,0.143l0.432,0.217l0.36,0.217l0.216,0.215l0.288,0.289l0.288,0.432
		l0.288,0.432l0.216,0.504l0.072,0.576l0.072,0.576l0.072,0.576V539.639L106.056,539.639z"/>
	<polygon style="fill:#9C9EA0;" points="265.681,509.688 271.224,509.688 272.304,504.648 265.681,504.648 260.424,504.648 
		262.151,496.943 265.681,496.943 272.951,496.943 274.031,491.904 265.681,491.904 263.304,491.904 264.815,485.064 
		265.681,485.064 276.552,485.064 277.632,480.096 265.681,480.096 259.632,480.096 259.271,481.896 253.008,509.688 
		259.271,509.688 265.681,509.688 	"/>
	<polygon style="fill:#9C9EA0;" points="249.048,479.951 244.079,479.951 240.048,488.52 244.151,488.52 249.048,479.951 	"/>
	<polygon style="fill:#9C9EA0;" points="378.72,500.4 378.791,500.975 378.936,501.551 379.008,502.127 379.224,502.703 
		379.368,503.207 379.583,503.783 379.871,504.215 380.088,504.719 380.375,505.152 380.735,505.584 381.024,506.016 
		381.384,506.375 381.743,506.807 382.247,507.168 382.681,507.6 383.184,507.887 383.688,508.176 384.264,508.535 384.768,508.752 
		385.345,508.967 385.848,509.184 386.424,509.4 386.999,509.543 387.359,509.615 387.575,509.688 388.151,509.76 388.871,509.904 
		389.592,509.975 390.239,509.975 391.681,510.047 392.543,510.047 393.479,509.975 394.345,509.904 395.279,509.76 
		396.216,509.688 397.079,509.543 397.943,509.4 398.88,509.184 399.743,508.967 400.607,508.68 401.472,508.391 401.615,508.391 
		402.335,508.104 405.791,492.48 401.615,492.48 393.768,492.48 392.688,497.232 399.097,497.232 397.368,504.576 396.72,504.719 
		395.999,504.863 395.352,504.936 394.56,504.936 393.84,505.008 392.472,504.936 391.247,504.719 390.239,504.432 389.375,504.143 
		388.583,503.783 387.863,503.279 387.359,502.848 387.287,502.775 386.929,502.344 386.495,501.768 386.136,501.047 
		385.848,500.256 385.632,499.463 385.487,498.527 385.487,497.592 385.487,496.512 385.632,495.432 385.848,494.352 
		386.136,493.416 386.424,492.623 386.784,491.688 387.359,490.752 387.359,490.68 387.936,489.816 388.655,488.879 
		389.016,488.447 389.447,488.088 390.312,487.295 390.815,486.936 391.247,486.576 392.256,486 393.264,485.568 394.345,485.207 
		395.424,484.848 396.575,484.631 397.728,484.559 398.88,484.559 400.177,484.631 400.823,484.703 401.472,484.848 
		401.615,484.848 402.048,484.992 402.695,485.135 403.345,485.352 404.063,485.568 404.712,485.783 405.359,486.072 
		406.008,486.359 407.231,481.104 406.44,480.816 405.575,480.527 404.784,480.312 403.919,480.096 403.056,479.951 
		402.264,479.807 401.615,479.736 401.543,479.736 400.681,479.664 399.888,479.52 399.097,479.52 397.655,479.592 396.936,479.664 
		396.216,479.736 395.495,479.807 394.776,479.951 393.983,480.096 393.264,480.312 392.543,480.527 391.751,480.744 
		391.031,481.031 390.312,481.32 389.735,481.607 389.159,481.896 388.583,482.184 388.008,482.471 387.432,482.832 
		387.359,482.904 386.929,483.191 386.352,483.551 385.776,483.984 385.272,484.416 384.768,484.848 384.335,485.279 
		383.831,485.783 383.399,486.287 382.896,486.791 382.535,487.295 382.104,487.871 381.743,488.375 381.384,488.951 
		381.097,489.527 380.808,490.176 380.447,490.752 380.159,491.4 379.943,491.975 379.513,493.344 379.079,494.639 378.863,495.936 
		378.647,497.232 378.647,497.879 378.575,498.527 378.575,499.176 378.647,499.824 378.72,500.4 	"/>
	<polygon style="fill:#9C9EA0;" points="161.424,504.648 149.544,504.648 151.272,496.943 162.072,496.943 163.152,491.904 
		152.352,491.904 153.936,485.064 165.6,485.064 166.752,480.096 148.752,480.096 142.128,509.688 160.272,509.688 161.424,504.648 
			"/>
	<path style="fill:#9C9EA0;" d="M90.288,534.527l-0.144-0.432l-0.216-0.359l-0.216-0.361l-0.36-0.287l-0.36-0.289l-0.36-0.215
		l-0.504-0.217l-0.504-0.072l-0.576-0.143L86.4,532.08h-0.433l-0.504-0.072h-0.432H84.6h-1.008h-4.824l-3.888,17.352l-0.072,0.432
		h0.072h3.672l1.656-7.416h0.72l0.36,0.072h0.36l0.36,0.072l0.36,0.145l0.288,0.143l0.144,0.145l0.144,0.145l0.144,0.145
		l0.145,0.215l0.144,0.432l0.216,0.576v0.217v0.072l0.792,5.039h4.104l-1.296-6.623l-0.072-0.432l-0.072-0.434l-0.144-0.359
		l-0.072-0.287l-0.144-0.145l-0.145-0.217l-0.216-0.143l-0.288-0.145l-0.216-0.072l0.36-0.072l0.576-0.215l0.576-0.289l0.504-0.287
		l0.504-0.289l0.36-0.359l0.36-0.289l0.288-0.287l0.288-0.432l0.216-0.432l0.216-0.504l0.216-0.506l0.072-0.504l0.072-0.504v-0.504
		l-0.072-0.432L90.288,534.527L90.288,534.527z M86.328,536.76L86.328,536.76v0.215v0.217l-0.072,0.289l-0.144,0.287l-0.144,0.287
		l-0.288,0.361l-0.288,0.287l-0.288,0.217l-0.145,0.145l-0.288,0.143l-0.216,0.072l-0.288,0.145l-0.504,0.072h-0.072l-0.432,0.072
		h-0.288h-2.016l1.008-4.752h1.728h0.432l0.504,0.07l0.432,0.072l0.288,0.072l0.216,0.072l0.288,0.217l0.145,0.143l0.144,0.145
		l0.144,0.217l0.072,0.287l0.072,0.289V536.76L86.328,536.76z"/>
	<polygon style="fill:#9C9EA0;" points="72.072,509.688 74.88,497.016 78.696,480.096 74.88,480.096 72.504,480.096 68.4,498.096 
		65.808,509.688 68.4,509.688 72.072,509.688 	"/>
	<path style="fill:#9C9EA0;" d="M74.88,537.336v-0.072l0.072-0.504l0.072-0.576l-0.072-0.504l-0.072-0.217v-0.359l-0.216-0.504
		l-0.288-0.504l-0.288-0.359l-0.288-0.434l-0.432-0.287l-0.432-0.287l-0.432-0.217l-0.576-0.217l-0.576-0.143l-0.648-0.072h-0.72
		h-0.72H68.4h-4.608l-3.888,17.711h3.745l1.439-6.623h1.729h0.792l0.72-0.072H68.4l0.647-0.072l0.648-0.145l0.577-0.215l0.576-0.217
		l0.576-0.287l0.504-0.289l0.288-0.215l0.36-0.289l0.432-0.359l0.433-0.432l0.359-0.504l0.288-0.504l0.288-0.576l0.216-0.576
		l0.216-0.504L74.88,537.336L74.88,537.336z M71.136,537.047L71.136,537.047v0.289l-0.072,0.287l-0.072,0.361l-0.144,0.287
		l-0.144,0.359l-0.216,0.289l-0.215,0.287l-0.288,0.217l-0.289,0.215l-0.288,0.217L69.12,540l-0.36,0.072l-0.359,0.143h-0.072
		l-0.504,0.072l-0.648,0.072h-0.432h-1.008l1.224-5.473h1.08h0.36h0.216l0.576,0.072l0.432,0.072l0.36,0.145l0.288,0.145
		l0.288,0.215l0.144,0.145l0.144,0.217l0.144,0.215l0.072,0.359l0.072,0.289V537.047L71.136,537.047z"/>
	<path style="fill:#9C9EA0;" d="M44.856,480.096l-0.577,1.008l-14.255,28.584h5.255l3.168-6.695h5.832h4.032l0.792,6.695h5.544
		L50.4,480.096H44.856L44.856,480.096z M44.28,497.951L44.28,497.951h-3.456l3.456-7.199l2.161-4.393l1.368,11.592H44.28
		L44.28,497.951z"/>
	<polygon style="fill:#9C9EA0;" points="25.416,480.6 24.696,480.383 23.904,480.168 23.112,480.023 22.32,479.879 21.456,479.807 
		20.664,479.736 19.872,479.736 18.504,479.736 17.064,479.807 16.416,479.951 15.696,480.023 14.976,480.24 14.328,480.383 
		13.68,480.527 13.032,480.744 12.312,481.031 11.664,481.248 11.016,481.535 10.368,481.896 9.792,482.184 9.288,482.471 
		8.712,482.832 8.208,483.119 7.704,483.551 7.2,483.912 6.696,484.271 6.264,484.703 5.76,485.135 5.328,485.639 4.824,486.072 
		4.464,486.576 4.032,487.152 3.6,487.656 3.24,488.16 2.88,488.736 2.52,489.312 2.232,489.887 1.944,490.463 1.656,491.111 
		1.152,492.336 0.72,493.631 0.432,494.855 0.216,496.152 0.072,497.375 0,498.672 0,499.32 0,499.896 0.072,500.471 0.144,501.047 
		0.288,501.623 0.36,502.199 0.576,502.775 0.72,503.279 0.936,503.783 1.152,504.359 1.44,504.791 1.728,505.295 2.088,505.799 
		2.376,506.232 2.736,506.592 3.168,507.023 3.6,507.383 3.96,507.744 4.464,508.104 4.896,508.391 5.4,508.607 5.904,508.896 
		6.408,509.111 6.984,509.256 7.488,509.471 8.64,509.76 9.288,509.904 10.008,510.047 10.728,510.119 11.448,510.119 
		12.24,510.191 13.68,510.119 14.4,510.119 15.12,510.047 15.84,509.975 16.56,509.832 17.28,509.76 18,509.543 18.72,509.4 
		19.512,509.184 20.232,508.896 20.952,508.607 21.672,503.568 20.952,503.855 20.232,504.072 19.512,504.287 18.792,504.504 
		17.568,504.719 16.416,504.936 15.192,505.008 14.112,504.936 13.104,504.791 12.024,504.576 11.16,504.215 10.296,503.783 
		9.504,503.279 8.784,502.703 8.208,501.984 7.704,501.191 7.344,500.328 7.056,499.391 6.84,498.455 6.84,497.447 6.84,496.439 
		6.984,495.432 7.2,494.352 7.488,493.416 7.848,492.551 8.136,491.904 8.64,490.967 9.216,490.104 9.864,489.24 10.584,488.447 
		11.376,487.729 12.168,487.152 12.816,486.719 13.68,486.215 14.616,485.783 15.552,485.424 16.632,485.135 17.712,484.992 
		18.792,484.92 19.944,484.848 21.168,484.992 22.32,485.135 22.896,485.207 23.616,485.424 24.336,485.639 24.984,485.928 
		25.632,486.215 27,481.104 26.208,480.816 25.416,480.6 	"/>
	<polygon style="fill:#9C9EA0;" points="434.951,501.408 428.184,480.096 420.479,480.096 413.855,509.688 419.761,509.688 
		424.44,488.375 431.207,509.688 438.911,509.688 445.464,480.096 439.703,480.096 434.951,501.408 	"/>
	<path style="fill:#9C9EA0;" d="M357.695,497.736l0.433,0.287l0.359,0.217l0.216,0.215l0.216,0.289l0.217,0.432l0.288,0.721
		l0.288,0.863l0.072,0.504l1.367,8.424h4.248h2.52l-2.088-11.088l-0.144-0.648l-0.216-0.791l-0.072-0.361l-0.072-0.215l-0.216-0.432
		l-0.216-0.289l-0.288-0.359l-0.288-0.217L363.815,495l-0.288-0.072l0.504-0.145l1.08-0.359l0.288-0.145l0.576-0.287l0.864-0.434
		l0.792-0.574l0.72-0.576l0.577-0.576l0.431-0.504l0.432-0.648l0.433-0.721l0.359-0.791l0.288-0.865l0.217-0.791l0.071-0.863v-0.865
		l-0.071-0.791l-0.145-0.721l-0.288-0.721l-0.287-0.646l-0.505-0.576l-0.504-0.504l-0.575-0.434l-0.721-0.359l-0.719-0.359
		l-0.865-0.217l-0.937-0.143h-0.144l-1.008-0.217h-0.72h-0.721h-0.792h-0.719h-1.656h-8.064l-5.112,23.039l-1.44,6.553h1.44h4.824
		l2.735-12.312h1.152h0.648l0.504,0.072l0.647,0.072L357.695,497.736L357.695,497.736z M355.176,492.623L355.176,492.623l1.8-7.848
		h2.809h0.719h0.865l0.72,0.145l0.432,0.145l0.36,0.143l0.432,0.289l0.288,0.287l0.216,0.217l0.216,0.359l0.216,0.504l0.072,0.504
		l0.072,0.504v0.432l-0.072,0.361l-0.144,0.432l-0.217,0.504l-0.287,0.504l-0.433,0.648l-0.504,0.504l-0.432,0.287l-0.36,0.289
		l-0.36,0.215l-0.359,0.145l-0.576,0.145l-0.719,0.215h-0.145l-0.793,0.072h-0.432H355.176L355.176,492.623z"/>
	<path style="fill:#9C9EA0;" d="M355.607,536.832l-0.072-0.361l-0.071-0.287l-0.145-0.359l-0.072-0.289l-0.144-0.287l-0.216-0.289
		l-0.145-0.287l-0.144-0.289l-0.216-0.287l-0.217-0.217l-0.216-0.215l-0.216-0.217l-0.288-0.215l-0.288-0.217l-0.216-0.145
		l-0.288-0.143l-0.287-0.145l-0.36-0.145l-0.288-0.145l-0.288-0.143l-0.647-0.145l-0.721-0.145l-0.719-0.072h-0.722h-0.72
		l-0.72,0.072l-0.576,0.145h-0.144l-0.433,0.072l-0.359,0.072l-0.36,0.143l-0.36,0.145l-0.359,0.145l-0.36,0.145l-0.36,0.143
		l-0.358,0.217l-0.361,0.145l-0.36,0.215l-0.288,0.217l-0.359,0.215l-0.288,0.289l-0.36,0.215l-0.288,0.289l-0.288,0.287
		l-0.287,0.289l-0.217,0.287l-0.287,0.361l-0.217,0.287l-0.216,0.287l-0.288,0.361l-0.215,0.287l-0.145,0.361l-0.217,0.359
		l-0.216,0.432l-0.144,0.359l-0.145,0.361l-0.071,0.215l-0.217,0.504l-0.216,0.793l-0.216,0.791l-0.144,0.793l-0.072,0.719v0.434
		v0.359l0.072,0.359v0.361l0.071,0.359l0.072,0.359l0.073,0.289l0.07,0.359l0.145,0.287l0.072,0.289l0.144,0.359l0.145,0.217v0.072
		l0.144,0.287l0.216,0.217l0.216,0.215l0.217,0.289l0.145,0.215l0.287,0.217l0.216,0.217l0.288,0.215l0.289,0.145l0.287,0.145
		l0.288,0.215l0.288,0.072l0.288,0.145l0.36,0.145l0.287,0.07l0.72,0.145l0.722,0.072l0.719,0.072h0.36h0.359l0.721-0.072
		l0.72-0.072h0.216l0.576-0.072l0.359-0.143l0.36-0.072l0.36-0.145l0.359-0.145l0.36-0.145l0.361-0.143l0.358-0.217l0.36-0.145
		l0.288-0.215l0.36-0.289l0.359-0.215l0.288-0.217l0.288-0.215l0.36-0.289l0.288-0.287l0.217-0.289l0.287-0.287l0.288-0.361
		l0.216-0.287l0.216-0.359l0.216-0.289l0.289-0.359l0.143-0.359l0.217-0.361l0.216-0.359l0.144-0.359l0.145-0.434l0.288-0.719
		l0.216-0.793l0.144-0.791l0.146-0.721l0.07-0.791v-0.361v-0.359v-0.432v-0.359l-0.07-0.361L355.607,536.832L355.607,536.832z
		 M351.72,538.92L351.72,538.92v0.719v0.434l-0.072,0.359l-0.145,0.791l-0.216,0.721l-0.288,0.721l-0.287,0.576l-0.288,0.576
		l-0.36,0.504l-0.432,0.576l-0.359,0.432l-0.361,0.359l-0.432,0.359l-0.432,0.289l-0.505,0.287l-0.432,0.217l-0.431,0.145
		l-0.073,0.07l-0.36,0.072l-0.504,0.072h-0.576h-0.216h-0.216l-0.504-0.072l-0.432-0.215l-0.432-0.145l-0.433-0.287l-0.36-0.289
		l-0.288-0.359l-0.288-0.432l-0.215-0.504l-0.145-0.434l-0.072-0.432l-0.072-0.504l-0.071-0.576v-0.576l0.071-0.791l0.145-0.721
		l0.216-0.721l0.216-0.646l0.288-0.648l0.288-0.576l0.288-0.576l0.433-0.504l0.432-0.504l0.432-0.504l0.504-0.359l0.432-0.289
		l0.433-0.287l0.359-0.217l0.505-0.145l0.144-0.07l0.36-0.072l0.504-0.072l0.576-0.072l0.504,0.072l0.432,0.072l0.504,0.143
		l0.432,0.217l0.288,0.217l0.288,0.215l0.289,0.289l0.287,0.432l0.288,0.432l0.144,0.504l0.145,0.576l0.072,0.576V538.92
		L351.72,538.92z"/>
	<path style="fill:#9C9EA0;" d="M372.097,534.527l-0.217-0.432l-0.145-0.359l-0.288-0.361l-0.288-0.287l-0.359-0.289l-0.432-0.215
		l-0.505-0.217l-0.504-0.072l-0.504-0.143l-0.72-0.072h-0.433l-0.431-0.072h-0.505h-0.433h-0.936h-4.896l-0.719,3.312l-3.169,14.471
		h3.169h0.575l1.656-7.416h0.72l0.361,0.072h0.358l0.288,0.072l0.36,0.145l0.288,0.143l0.216,0.145l0.144,0.145l0.145,0.145
		l0.072,0.215l0.216,0.432l0.144,0.576l0.072,0.217v0.072l0.792,5.039h4.104l-1.297-6.623l-0.07-0.432l-0.145-0.434l-0.145-0.359
		l-0.072-0.287l-0.144-0.145l-0.145-0.217l-0.216-0.143l-0.287-0.145l-0.145-0.072l0.287-0.072l0.648-0.215l0.576-0.289l0.504-0.287
		l0.432-0.289l0.434-0.359l0.358-0.289l0.217-0.287l0.287-0.432l0.288-0.432l0.217-0.504l0.145-0.506l0.143-0.504l0.072-0.504
		v-0.504l-0.072-0.432L372.097,534.527L372.097,534.527z M368.136,536.975L368.136,536.975l-0.072,0.217l-0.072,0.289l-0.144,0.287
		l-0.145,0.287l-0.288,0.361l-0.287,0.287l-0.217,0.217l-0.216,0.145l-0.216,0.143l-0.288,0.072l-0.288,0.145l-0.432,0.072h-0.072
		l-0.504,0.072h-0.288h-2.016l1.08-4.752h1.728h0.432l0.504,0.07l0.433,0.072l0.216,0.072l0.289,0.072l0.215,0.217l0.216,0.143
		l0.073,0.145l0.143,0.217l0.145,0.287v0.289l0.072,0.359V536.975L368.136,536.975z"/>
	<polygon style="fill:#9C9EA0;" points="337.896,535.535 338.256,535.68 339.048,532.656 338.615,532.439 338.256,532.367 
		338.184,532.367 337.681,532.223 337.176,532.08 336.743,532.008 336.239,531.936 335.735,531.863 335.304,531.863 334.8,531.791 
		333.936,531.791 333.144,531.863 332.712,531.936 332.279,532.008 331.919,532.08 331.487,532.223 331.056,532.295 
		330.623,532.439 330.264,532.584 329.831,532.729 329.472,532.943 329.039,533.16 328.751,533.303 328.392,533.52 328.104,533.664 
		327.815,533.879 327.527,534.096 327.167,534.312 326.88,534.527 326.592,534.816 326.304,535.104 326.016,535.32 325.8,535.68 
		325.513,535.967 325.296,536.256 325.079,536.543 324.791,536.904 324.575,537.191 324.359,537.551 324.216,537.912 
		323.999,538.271 323.856,538.631 323.567,539.424 323.352,540.143 323.136,540.936 322.991,541.656 322.919,542.447 
		322.848,543.168 322.848,543.6 322.848,543.959 322.919,544.248 322.991,544.607 323.063,544.967 323.136,545.328 323.207,545.615 
		323.279,545.975 323.424,546.264 323.567,546.623 323.712,546.912 323.929,547.199 324.071,547.488 324.216,547.559 
		324.287,547.703 324.503,547.92 324.791,548.207 325.008,548.424 325.296,548.639 325.513,548.855 325.8,549 326.088,549.215 
		326.375,549.287 326.735,549.432 327.024,549.576 327.384,549.648 328.031,549.863 328.464,549.936 328.896,550.008 
		329.327,550.008 329.761,550.08 330.192,550.08 331.056,550.08 331.487,550.08 331.919,550.008 332.352,549.936 332.784,549.936 
		333.216,549.863 333.72,549.719 334.079,549.576 334.583,549.504 335.016,549.287 335.447,549.143 335.88,546.119 335.447,546.264 
		335.016,546.408 334.583,546.551 334.151,546.695 333.432,546.84 332.712,546.912 331.991,546.984 331.345,546.912 330.695,546.84 
		330.119,546.695 329.543,546.551 329.039,546.264 328.535,545.975 328.176,545.615 327.815,545.184 327.527,544.752 
		327.239,544.176 327.097,543.672 327.024,543.096 326.951,542.447 326.951,541.871 327.024,541.223 327.167,540.648 
		327.384,540.072 327.527,539.496 327.743,539.135 328.031,538.559 328.392,538.055 328.751,537.551 329.256,537.047 
		329.688,536.615 330.192,536.256 330.552,535.967 331.056,535.752 331.632,535.463 332.207,535.248 332.855,535.104 
		333.503,534.959 334.151,534.959 334.871,534.887 335.592,534.959 336.239,535.104 336.6,535.104 337.031,535.248 337.464,535.391 
		337.896,535.535 	"/>
	<path style="fill:#9C9EA0;" d="M328.247,502.992l0.792,6.695h5.474l-4.249-29.592h-5.544l-0.504,1.08l-14.257,28.512h5.185
		l3.168-6.695h5.904H328.247L328.247,502.992z M320.761,497.951L320.761,497.951l3.455-7.271l2.088-4.32l1.368,11.592h-3.456
		H320.761L320.761,497.951z"/>
	<polygon style="fill:#9C9EA0;" points="474.552,485.064 475.632,480.096 457.632,480.096 451.079,509.688 469.224,509.688 
		470.375,504.648 458.424,504.648 460.151,496.943 470.951,496.943 472.104,491.904 461.304,491.904 462.815,485.064 
		474.552,485.064 	"/>
	<polygon style="fill:#9C9EA0;" points="176.616,546.336 175.824,549.791 176.616,549.791 186.696,549.791 187.344,546.768 
		180.216,546.768 181.296,542.16 187.776,542.16 188.424,539.135 181.944,539.135 182.88,535.031 189.936,535.031 190.584,532.08 
		179.784,532.08 176.616,546.336 	"/>
	<polygon style="fill:#9C9EA0;" points="414.863,532.295 414.432,532.152 413.855,532.08 413.352,532.008 412.848,531.863 
		412.345,531.863 411.911,531.791 411.407,531.791 410.976,531.791 410.111,531.863 409.392,532.008 409.031,532.08 408.6,532.152 
		408.024,532.439 407.375,532.656 406.871,533.016 406.368,533.303 405.791,533.736 405.575,533.951 405.287,534.24 
		404.855,534.816 404.567,535.391 404.279,535.967 404.063,536.471 403.919,537.047 403.848,537.551 403.848,538.055 
		403.919,538.631 403.991,539.135 404.207,539.568 404.424,539.928 404.712,540.287 405.071,540.648 405.359,540.863 
		405.647,541.08 406.008,541.295 406.513,541.584 407.088,541.871 407.735,542.232 408.167,542.447 408.6,542.664 408.888,542.879 
		409.319,543.168 409.607,543.383 409.823,543.527 409.896,543.672 409.968,543.887 410.111,544.104 410.111,544.248 
		410.184,544.463 410.111,544.68 410.111,544.967 409.968,545.111 409.896,545.4 409.681,545.688 409.535,545.904 409.319,546.119 
		409.031,546.336 408.6,546.551 408.239,546.695 407.735,546.84 407.231,546.984 406.728,546.984 406.151,546.984 405.432,546.984 
		405.071,546.912 404.64,546.84 404.207,546.695 403.776,546.551 403.415,546.408 402.911,546.191 402.264,545.975 401.615,547.848 
		401.111,549.143 401.615,549.287 401.761,549.359 402.264,549.504 402.84,549.648 403.345,549.791 403.848,549.863 
		404.279,549.936 404.784,549.936 405.287,550.008 405.791,550.008 406.368,550.008 406.871,549.936 407.231,549.936 
		408.024,549.791 408.743,549.648 409.464,549.359 410.111,549.072 410.688,548.783 411.191,548.424 411.695,548.064 
		412.128,547.631 412.56,547.199 412.919,546.695 413.207,546.264 413.495,545.688 413.712,545.111 413.855,544.463 
		413.929,543.887 413.929,543.312 413.855,542.807 413.784,542.303 413.567,541.799 413.352,541.295 413.136,541.08 
		412.919,540.863 412.703,540.648 412.487,540.432 412.2,540.287 411.911,540.072 411.623,539.855 411.191,539.639 410.688,539.424 
		410.111,539.135 409.607,538.92 409.247,538.703 408.815,538.488 408.6,538.344 408.312,538.055 408.097,537.912 407.951,537.768 
		407.88,537.623 407.808,537.48 407.808,537.264 407.735,537.047 407.735,536.832 407.808,536.688 407.808,536.543 407.88,536.328 
		407.951,536.184 408.024,536.039 408.167,535.896 408.312,535.752 408.455,535.535 408.672,535.391 408.888,535.248 
		409.177,535.031 409.535,534.887 409.968,534.816 410.399,534.744 410.903,534.672 411.479,534.672 412.056,534.744 
		412.776,534.887 413.207,534.959 413.567,535.104 413.999,535.248 414.359,535.391 414.72,535.535 415.8,532.584 415.296,532.439 
		414.863,532.295 	"/>
	<polygon style="fill:#9C9EA0;" points="394.415,535.031 401.399,535.031 401.615,534.168 402.119,532.08 401.615,532.08 
		391.247,532.08 387.359,549.648 387.359,549.791 398.231,549.791 398.88,546.768 391.751,546.768 392.831,542.16 399.239,542.16 
		399.959,539.135 393.479,539.135 394.415,535.031 	"/>
	<polygon style="fill:#9C9EA0;" points="387.432,532.584 387.359,532.584 386.999,532.439 386.495,532.295 386.063,532.152 
		385.56,532.08 384.983,532.008 384.552,531.863 384.048,531.863 383.543,531.791 383.039,531.791 382.607,531.791 381.743,531.863 
		381.024,532.008 380.663,532.08 380.231,532.152 379.583,532.439 379.008,532.656 378.503,533.016 377.999,533.303 
		377.495,533.736 377.207,533.951 376.919,534.24 376.56,534.816 376.2,535.391 375.911,535.967 375.695,536.471 375.552,537.047 
		375.479,537.551 375.479,538.055 375.552,538.631 375.623,539.135 375.84,539.568 376.056,539.928 376.345,540.287 
		376.703,540.648 376.991,540.863 377.279,541.08 377.64,541.295 378.144,541.584 378.72,541.871 379.368,542.232 379.871,542.447 
		380.231,542.664 380.52,542.879 380.951,543.168 381.239,543.383 381.384,543.527 381.527,543.672 381.6,543.887 381.743,544.104 
		381.743,544.248 381.743,544.463 381.743,544.68 381.672,544.967 381.672,545.111 381.527,545.4 381.384,545.688 381.167,545.904 
		380.951,546.119 380.663,546.336 380.231,546.551 379.871,546.695 379.368,546.84 378.936,546.984 378.359,546.984 
		377.784,546.984 377.136,546.984 376.703,546.912 376.272,546.84 375.84,546.695 375.407,546.551 375.048,546.408 374.543,546.191 
		373.968,545.975 372.743,549.143 373.319,549.359 373.968,549.504 374.472,549.648 375.048,549.791 375.479,549.863 
		375.911,549.936 376.415,549.936 376.919,550.008 377.495,550.008 377.999,550.008 378.503,549.936 378.936,549.936 
		379.655,549.791 380.375,549.648 381.097,549.359 381.743,549.072 382.319,548.783 382.823,548.424 383.327,548.064 
		383.761,547.631 384.191,547.199 384.552,546.695 384.84,546.264 385.128,545.688 385.345,545.111 385.487,544.463 385.56,543.887 
		385.56,543.312 385.487,542.807 385.415,542.303 385.2,541.799 384.911,541.295 384.768,541.08 384.552,540.863 384.335,540.648 
		384.119,540.432 383.831,540.287 383.543,540.072 383.256,539.855 382.823,539.639 382.319,539.424 381.743,539.135 
		381.239,538.92 380.88,538.703 380.447,538.488 380.231,538.344 379.943,538.055 379.728,537.912 379.583,537.768 379.513,537.623 
		379.513,537.48 379.44,537.264 379.368,537.047 379.368,536.832 379.44,536.688 379.44,536.543 379.513,536.328 379.583,536.184 
		379.655,536.039 379.8,535.896 379.871,535.752 380.088,535.535 380.304,535.391 380.52,535.248 380.808,535.031 381.167,534.887 
		381.6,534.816 382.031,534.744 382.535,534.672 383.111,534.672 383.761,534.744 384.407,534.887 384.84,534.959 385.2,535.104 
		385.632,535.248 385.991,535.391 386.424,535.535 387.359,532.729 387.432,532.584 	"/>
	<polygon style="fill:#9C9EA0;" points="245.375,532.008 241.632,532.008 237.744,549.791 248.543,549.791 249.264,546.768 
		242.136,546.768 245.375,532.008 	"/>
	<path style="fill:#9C9EA0;" d="M218.376,508.104l1.08-0.504l0.576-0.287l0.504-0.289l0.576-0.287l0.504-0.361l0.504-0.432
		l0.504-0.359l0.432-0.361l0.504-0.504l0.432-0.432l0.432-0.432l0.432-0.432l0.432-0.504l0.36-0.576l0.288-0.504l0.36-0.504
		l0.576-1.08l0.288-0.504l0.36-0.648l0.288-0.648l0.072-0.359l0.144-0.359l0.432-1.297l0.36-1.367l0.288-1.297l0.216-1.295v-0.648
		l0.072-0.576v-0.721v-0.576l-0.072-0.576l-0.072-0.576l-0.072-0.574l-0.144-0.576l-0.145-0.504l-0.216-0.576l-0.144-0.504
		l-0.288-0.434l-0.216-0.504l-0.144-0.143l-0.144-0.361l-0.36-0.432l-0.288-0.432l-0.432-0.359l-0.36-0.361l-0.36-0.287
		l-0.432-0.359l-0.432-0.289l-0.432-0.215l-0.432-0.289l-0.432-0.145l-0.503-0.215l-0.577-0.217l-0.576-0.145l-0.576-0.215
		l-1.152-0.217l-1.224-0.143l-0.864-0.145l-0.936-0.072h-0.936h-0.936h-0.648h-0.36h-8.28l-6.48,29.592h7.344h0.936h0.864
		l0.936-0.072h0.864l0.936-0.072l0.72-0.072l0.792-0.07l0.72-0.145l0.792-0.072l0.216-0.072l0.504-0.072l0.792-0.215l1.08-0.361
		L218.376,508.104L218.376,508.104z M215.712,503.711L215.712,503.711l-0.864,0.361h-0.144l-1.008,0.359l-1.08,0.287l-1.152,0.217
		l-1.296,0.072h-1.224H207l4.464-20.232h2.017h1.151h0.216l0.792,0.072l1.08,0.217l0.936,0.215l0.936,0.359l0.721,0.361l0.575,0.287
		l0.648,0.576l0.576,0.576l0.504,0.648l0.432,0.791l0.144,0.434l0.289,0.791l0.144,0.721l0.072,1.008v1.008l-0.072,1.152
		l-0.288,1.08l-0.216,1.008l-0.288,0.791l-0.432,1.008l-0.503,0.938l-0.577,0.863l-0.576,0.791l-0.648,0.793l-0.792,0.721
		l-0.792,0.646l-0.864,0.576L215.712,503.711L215.712,503.711z"/>
	<path style="fill:#9C9EA0;" d="M228.312,532.08l-0.433,0.576l-10.656,17.135h3.888l2.376-4.031h4.392h3.024l0.648,4.031h4.032
		l-3.096-17.711H228.312L228.312,532.08z M227.88,542.736L227.88,542.736h-2.592l2.592-4.32l1.584-2.592l1.009,6.912H227.88
		L227.88,542.736z"/>
	<polygon style="fill:#9C9EA0;" points="199.512,542.303 208.368,542.303 209.016,539.496 200.088,539.496 199.512,542.303 	"/>
	<path style="fill:#9C9EA0;" d="M265.681,537.408l0.07-0.072v-0.576l0.072-0.576l-0.072-0.504l-0.07-0.217v-0.359l-0.217-0.504
		l-0.217-0.504l-0.359-0.359l-0.288-0.434l-0.36-0.287l-0.504-0.287l-0.432-0.217l-0.576-0.217l-0.576-0.143l-0.648-0.072h-0.646
		h-0.793h-0.792h-4.608l-3.96,17.711h3.744l1.44-6.623h1.728h0.792l0.721-0.072h0.144l0.576-0.072l0.647-0.145l0.576-0.215
		l0.576-0.217l0.576-0.287l0.504-0.289l0.288-0.215l0.359-0.289l0.433-0.359l0.432-0.432l0.36-0.504l0.288-0.504l0.288-0.576
		l0.216-0.576l0.217-0.504L265.681,537.408L265.681,537.408z M261.936,537.047L261.936,537.047v0.289l-0.072,0.287l-0.072,0.361
		l-0.144,0.287l-0.145,0.359l-0.216,0.289l-0.216,0.287l-0.215,0.217l-0.289,0.215l-0.288,0.217l-0.36,0.145l-0.359,0.072
		l-0.288,0.07l-0.144,0.072l-0.505,0.072l-0.647,0.072h-0.36h-1.08l1.225-5.473h1.08h0.432h0.144l0.576,0.072l0.433,0.072
		l0.36,0.145l0.287,0.145l0.288,0.215l0.144,0.145l0.145,0.217l0.144,0.215l0.072,0.359l0.072,0.289V537.047L261.936,537.047z"/>
	<polygon style="fill:#9C9EA0;" points="303.407,542.303 312.335,542.303 312.983,539.496 304.056,539.496 303.407,542.303 	"/>
	<polygon style="fill:#9C9EA0;" points="293.184,532.295 292.681,532.152 292.176,532.08 291.672,532.008 291.167,531.863 
		290.663,531.863 290.159,531.791 289.728,531.791 289.224,531.791 288.432,531.863 287.712,532.008 287.279,532.08 
		286.919,532.152 286.272,532.439 285.695,532.656 285.119,533.016 284.615,533.303 284.111,533.736 283.823,533.951 
		283.608,534.24 283.176,534.816 282.815,535.391 282.6,535.967 282.384,536.471 282.167,537.047 282.167,537.551 282.097,538.055 
		282.167,538.631 282.312,539.135 282.455,539.568 282.743,539.928 283.031,540.287 283.392,540.648 283.608,540.863 
		283.896,541.08 284.256,541.295 284.761,541.584 285.407,541.871 285.983,542.232 286.487,542.447 286.919,542.664 
		287.207,542.879 287.64,543.168 287.929,543.383 288.071,543.527 288.216,543.672 288.287,543.887 288.359,544.104 
		288.432,544.248 288.432,544.463 288.432,544.68 288.359,544.967 288.287,545.111 288.216,545.4 287.999,545.688 287.784,545.904 
		287.64,546.119 287.279,546.336 286.919,546.551 286.487,546.695 286.056,546.84 285.552,546.984 285.048,546.984 284.399,546.984 
		283.751,546.984 283.319,546.912 282.888,546.84 282.455,546.695 282.097,546.551 281.663,546.408 281.159,546.191 
		280.583,545.975 279.863,547.848 279.432,549.143 279.863,549.287 280.008,549.359 280.583,549.504 281.159,549.648 
		281.663,549.791 282.097,549.863 282.6,549.936 283.031,549.936 283.608,550.008 284.111,550.008 284.688,550.008 285.119,549.936 
		285.552,549.936 286.345,549.791 287.063,549.648 287.712,549.359 288.359,549.072 288.936,548.783 289.513,548.424 
		290.016,548.064 290.447,547.631 290.88,547.199 291.167,546.695 291.527,546.264 291.815,545.688 291.959,545.111 
		292.176,544.463 292.247,543.887 292.247,543.312 292.176,542.807 292.031,542.303 291.888,541.799 291.6,541.295 291.384,541.08 
		291.239,540.863 291.024,540.648 290.735,540.432 290.52,540.287 290.231,540.072 289.871,539.855 289.513,539.639 
		289.008,539.424 288.432,539.135 287.929,538.92 287.495,538.703 287.136,538.488 286.848,538.344 286.56,538.055 286.415,537.912 
		286.272,537.768 286.199,537.623 286.128,537.48 286.128,537.264 286.056,537.047 286.056,536.832 286.128,536.688 
		286.128,536.543 286.199,536.328 286.272,536.184 286.345,536.039 286.487,535.896 286.56,535.752 286.776,535.535 
		286.919,535.391 287.207,535.248 287.495,535.031 287.856,534.887 288.216,534.816 288.72,534.744 289.224,534.672 289.8,534.672 
		290.375,534.744 291.097,534.887 291.455,534.959 291.888,535.104 292.247,535.248 292.681,535.391 293.039,535.535 
		294.048,532.584 293.615,532.439 293.184,532.295 	"/>
	<path style="fill:#9C9EA0;" d="M303.983,496.152l0.576-0.434l0.72-0.646l0.649-0.793l0.646-0.791l0.576-0.865l0.432-0.936
		l0.36-0.936l0.36-0.936l0.216-0.938l0.072-0.936v-0.863l-0.072-0.938l-0.145-0.936l-0.359-0.863l-0.36-0.793l-0.504-0.719
		l-0.576-0.648l-0.646-0.504l-0.722-0.432l-0.792-0.361l-0.863-0.287l-0.937-0.287l-1.151-0.145l-1.152-0.072h-1.224h-1.44h-7.632
		l-6.552,29.592h6.264l2.448-11.088h2.88h1.224l1.224-0.072l0.145-0.072l1.08-0.143l1.008-0.217l1.008-0.289l0.938-0.359
		l0.935-0.432l0.864-0.504L303.983,496.152L303.983,496.152z M302.184,488.447L302.184,488.447v0.504l-0.145,0.504l-0.144,0.504
		l-0.145,0.504l-0.287,0.576l-0.36,0.576l-0.432,0.432l-0.36,0.361l-0.504,0.359l-0.433,0.287l-0.575,0.289l-0.576,0.145
		l-0.576,0.143l-0.145,0.072l-0.863,0.145l-1.152,0.072h-0.576h-1.8l2.088-9.145h1.8l0.648,0.072h0.36l0.936,0.145l0.648,0.072
		l0.647,0.287l0.504,0.287l0.433,0.289l0.288,0.215l0.217,0.289l0.215,0.432l0.144,0.576l0.145,0.504V488.447L302.184,488.447z"/>
	<polygon style="fill:#9C9EA0;" points="272.663,535.031 279.72,535.031 279.863,534.24 280.368,532.08 279.863,532.08 
		269.567,532.08 265.681,549.432 265.608,549.791 265.681,549.791 276.479,549.791 277.199,546.768 270.071,546.768 271.079,542.16 
		277.56,542.16 278.207,539.135 271.728,539.135 272.663,535.031 	"/>
	<polygon style="fill:#B01E24;" points="1.008,522.072 474.407,522.072 474.407,519.119 1.008,519.119 1.008,522.072 	"/>
</g>
</svg>
