<?xml version="1.0" encoding="utf-8"?><!-- Generator: Adobe Illustrator 16.0.0, SVG Export Plug-In . SVG Version: 6.00 Build 0) --><!DOCTYPE svg PUBLIC "-//W3C//DTD SVG 1.1//EN" "http://www.w3.org/Graphics/SVG/1.1/DTD/svg11.dtd"><svg version="1.1" id="svg3671" xmlns:rdf="http://www.w3.org/1999/02/22-rdf-syntax-ns#" xmlns:cc="http://creativecommons.org/ns#" xmlns:sodipodi="http://sodipodi.sourceforge.net/DTD/sodipodi-0.dtd" xmlns:svg="http://www.w3.org/2000/svg" xmlns:inkscape="http://www.inkscape.org/namespaces/inkscape" xmlns:dc="http://purl.org/dc/elements/1.1/" inkscape:version="0.48.5 r10040" sodipodi:docname="New document 4" xmlns="http://www.w3.org/2000/svg" xmlns:xlink="http://www.w3.org/1999/xlink" x="0px" y="0px" width="999px" height="699.242px" viewBox="0.5 0.5 999 699.242" enable-background="new 0.5 0.5 999 699.242" xml:space="preserve"><sodipodi:namedview showgrid="false" fit-margin-top="0.5" bordercolor="#666666" pagecolor="#ffffff" inkscape:zoom="0.57695313" inkscape:cx="621.35281" fit-margin-left="0.5" borderopacity="1.0" inkscape:cy="283.29076" id="base" inkscape:window-x="657" inkscape:window-height="1041" inkscape:window-y="-21" inkscape:document-units="px" inkscape:pageopacity="0.0" inkscape:current-layer="layer1" inkscape:window-width="1256" fit-margin-right="0.5" inkscape:pageshadow="2" fit-margin-bottom="0.5" inkscape:window-maximized="0"></sodipodi:namedview><path id="path3005" inkscape:connector-curvature="0" fill="#00A1E0" d="M416.224,76.763c32.219-33.57,77.074-54.391,126.682-54.391	c65.946,0,123.48,36.772,154.12,91.361c26.626-11.896,56.098-18.514,87.106-18.514c118.94,0,215.368,97.268,215.368,217.247	c0,119.993-96.428,217.261-215.368,217.261c-14.516,0-28.703-1.451-42.422-4.227c-26.981,48.128-78.397,80.646-137.412,80.646	c-24.705,0-48.072-5.706-68.877-15.853c-27.352,64.337-91.077,109.448-165.348,109.448c-77.344,0-143.261-48.939-168.563-117.574	c-11.057,2.348-22.513,3.572-34.268,3.572C75.155,585.74,0.5,510.317,0.5,417.262c0-62.359,33.542-116.807,83.378-145.937	c-10.26-23.608-15.967-49.665-15.967-77.06C67.911,87.25,154.79,0.5,261.948,0.5C324.862,0.5,380.775,30.413,416.224,76.763"/><path id="path3009" inkscape:connector-curvature="0" fill="#FFFFFF" d="M145.196,363.11c-0.626,1.637,0.228,1.979,0.427,2.263	c1.878,1.366,3.786,2.349,5.707,3.444c10.189,5.407,19.81,6.986,29.871,6.986c20.492,0,33.214-10.9,33.214-28.447v-0.341	c0-16.224-14.358-22.115-27.835-26.37l-1.75-0.569c-10.161-3.302-18.927-6.147-18.927-12.836v-0.355	c0-5.721,5.123-9.934,13.064-9.934c8.823,0,19.297,2.932,26.042,6.66c0,0,1.978,1.281,2.704-0.64	c0.398-1.025,3.814-10.218,4.17-11.214c0.384-1.082-0.299-1.879-0.996-2.306c-7.699-4.682-18.344-7.884-29.358-7.884l-2.049,0.014	c-18.756,0-31.848,11.328-31.848,27.565v0.342c0,17.119,14.444,22.669,27.978,26.54l2.177,0.669	c9.862,3.031,18.358,5.635,18.358,12.58v0.342c0,6.347-5.521,11.071-14.43,11.071c-3.458,0-14.487-0.071-26.398-7.6	c-1.438-0.84-2.277-1.451-3.387-2.12c-0.583-0.37-2.049-1.011-2.689,0.925L145.196,363.11z"/><path id="path3013" inkscape:connector-curvature="0" fill="#FFFFFF" d="M445.194,363.11c-0.626,1.637,0.228,1.979,0.427,2.263	c1.878,1.366,3.786,2.349,5.706,3.444c10.189,5.407,19.811,6.986,29.871,6.986c20.492,0,33.215-10.9,33.215-28.447v-0.341	c0-16.224-14.359-22.115-27.836-26.37l-1.75-0.569c-10.161-3.302-18.928-6.147-18.928-12.836v-0.355	c0-5.721,5.123-9.934,13.064-9.934c8.823,0,19.297,2.932,26.043,6.66c0,0,1.978,1.281,2.703-0.64	c0.398-1.025,3.814-10.218,4.17-11.214c0.385-1.082-0.299-1.879-0.996-2.306c-7.699-4.682-18.344-7.884-29.358-7.884l-2.05,0.014	c-18.756,0-31.848,11.328-31.848,27.565v0.342c0,17.119,14.444,22.669,27.978,26.54l2.177,0.669	c9.862,3.031,18.373,5.635,18.373,12.58v0.342c0,6.347-5.536,11.071-14.445,11.071c-3.457,0-14.486-0.071-26.397-7.6	c-1.438-0.84-2.291-1.423-3.372-2.12c-0.371-0.242-2.107-0.911-2.705,0.925L445.194,363.11z"/><path id="path3017" inkscape:connector-curvature="0" fill="#FFFFFF" d="M649.995,328.74c0,9.919-1.85,17.731-5.493,23.253	c-3.601,5.465-9.051,8.126-16.649,8.126c-7.613,0-13.035-2.647-16.579-8.126c-3.587-5.507-5.407-13.334-5.407-23.253	c0-9.904,1.82-17.703,5.407-23.168c3.544-5.407,8.966-8.04,16.579-8.04c7.599,0,13.049,2.633,16.664,8.04	C648.146,311.036,649.995,318.835,649.995,328.74 M667.101,310.354c-1.68-5.679-4.298-10.688-7.784-14.857	c-3.487-4.184-7.898-7.542-13.136-9.99c-5.223-2.433-11.398-3.671-18.328-3.671c-6.945,0-13.121,1.238-18.344,3.671	c-5.237,2.448-9.648,5.807-13.149,9.99c-3.472,4.184-6.091,9.193-7.784,14.857c-1.665,5.649-2.505,11.825-2.505,18.386	s0.84,12.751,2.505,18.386c1.693,5.664,4.298,10.674,7.799,14.857c3.486,4.184,7.912,7.528,13.135,9.904	c5.236,2.377,11.398,3.586,18.344,3.586c6.93,0,13.092-1.209,18.328-3.586c5.223-2.376,9.648-5.721,13.136-9.904	c3.486-4.17,6.104-9.179,7.784-14.857c1.68-5.649,2.519-11.84,2.519-18.386S668.78,316.003,667.101,310.354"/><path id="path3021" inkscape:connector-curvature="0" fill="#FFFFFF" d="M807.568,357.47c-0.569-1.665-2.177-1.039-2.177-1.039	c-2.49,0.954-5.138,1.836-7.955,2.277c-2.861,0.44-6.006,0.669-9.379,0.669c-8.281,0-14.856-2.462-19.566-7.329	c-4.725-4.867-7.372-12.736-7.344-23.381c0.029-9.691,2.362-16.978,6.561-22.527c4.17-5.521,10.517-8.354,18.984-8.354	c7.059,0,12.438,0.811,18.072,2.59c0,0,1.352,0.583,1.992-1.181c1.494-4.156,2.604-7.13,4.198-11.698	c0.456-1.295-0.654-1.85-1.053-2.007c-2.22-0.868-7.457-2.276-11.413-2.874c-3.7-0.569-8.026-0.868-12.836-0.868	c-7.188,0-13.591,1.224-19.069,3.672c-5.465,2.433-10.104,5.791-13.775,9.976c-3.672,4.184-6.461,9.192-8.325,14.856	c-1.85,5.649-2.789,11.854-2.789,18.415c0,14.188,3.828,25.657,11.385,34.054c7.57,8.425,18.941,12.708,33.77,12.708	c8.766,0,17.76-1.778,24.221-4.326c0,0,1.238-0.598,0.697-2.034L807.568,357.47z"/><path id="path3025" inkscape:connector-curvature="0" fill="#FFFFFF" d="M837.497,319.238c0.811-5.507,2.334-10.09,4.682-13.661	c3.544-5.422,8.951-8.396,16.551-8.396s12.623,2.988,16.223,8.396c2.391,3.571,3.43,8.354,3.843,13.661H837.497z M895.089,307.127	c-1.451-5.479-5.052-11.015-7.414-13.548c-3.729-4.013-7.371-6.816-10.986-8.382c-4.725-2.021-10.389-3.358-16.593-3.358	c-7.229,0-13.79,1.21-19.112,3.714c-5.336,2.505-9.818,5.921-13.334,10.176c-3.516,4.24-6.162,9.292-7.842,15.027	c-1.693,5.707-2.547,11.926-2.547,18.485c0,6.675,0.883,12.894,2.633,18.486c1.765,5.636,4.582,10.602,8.396,14.714	c3.799,4.142,8.695,7.387,14.558,9.648c5.821,2.249,12.894,3.416,21.019,3.401c16.722-0.057,25.53-3.785,29.159-5.792	c0.641-0.355,1.253-0.981,0.483-2.774l-3.785-10.603c-0.568-1.579-2.177-0.996-2.177-0.996c-4.142,1.537-10.032,4.298-23.766,4.27	c-8.979-0.014-15.64-2.661-19.81-6.803c-4.283-4.24-6.375-10.474-6.745-19.268l57.905,0.057c0,0,1.522-0.028,1.68-1.509	C896.868,331.448,898.804,320.177,895.089,307.127"/><path id="path3029" inkscape:connector-curvature="0" fill="#FFFFFF" d="M373.762,319.238c0.825-5.507,2.334-10.09,4.682-13.661	c3.543-5.422,8.951-8.396,16.55-8.396s12.623,2.988,16.237,8.396c2.376,3.571,3.415,8.354,3.828,13.661H373.762z M431.339,307.127	c-1.451-5.479-5.037-11.015-7.399-13.548c-3.729-4.013-7.372-6.816-10.986-8.382c-4.725-2.021-10.388-3.358-16.593-3.358	c-7.215,0-13.79,1.21-19.112,3.714c-5.336,2.505-9.819,5.921-13.334,10.176c-3.515,4.24-6.162,9.292-7.841,15.027	c-1.679,5.707-2.547,11.926-2.547,18.485c0,6.675,0.882,12.894,2.633,18.486c1.765,5.636,4.583,10.602,8.396,14.714	c3.8,4.142,8.695,7.387,14.558,9.648c5.821,2.249,12.893,3.416,21.019,3.401c16.721-0.057,25.53-3.785,29.159-5.792	c0.641-0.355,1.252-0.981,0.484-2.774l-3.771-10.603c-0.584-1.579-2.191-0.996-2.191-0.996c-4.141,1.537-10.019,4.298-23.78,4.27	c-8.965-0.014-15.625-2.661-19.795-6.803c-4.284-4.24-6.375-10.474-6.746-19.268l57.905,0.057c0,0,1.522-0.028,1.679-1.509	C433.132,331.448,435.067,320.177,431.339,307.127"/><path id="path3033" inkscape:connector-curvature="0" fill="#FFFFFF" d="M248.601,357.153c-2.263-1.808-2.576-2.263-3.344-3.43	c-1.139-1.779-1.722-4.312-1.722-7.528c0-5.095,1.679-8.752,5.166-11.214c-0.042,0.015,4.981-4.34,16.792-4.184	c8.296,0.114,15.71,1.338,15.71,1.338v26.327h0.014c0,0-7.357,1.579-15.639,2.077C253.795,361.251,248.558,357.139,248.601,357.153 M271.64,316.467c-2.348-0.171-5.394-0.271-9.037-0.271c-4.966,0-9.762,0.626-14.259,1.836c-4.525,1.209-8.595,3.103-12.096,5.606	c-3.515,2.52-6.347,5.735-8.396,9.549c-2.049,3.814-3.088,8.311-3.088,13.349c0,5.123,0.882,9.577,2.647,13.221	c1.765,3.657,4.312,6.702,7.556,9.051c3.216,2.348,7.187,4.069,11.797,5.108c4.54,1.039,9.691,1.565,15.327,1.565	c5.934,0,11.854-0.483,17.589-1.466c5.678-0.968,12.651-2.377,14.586-2.817c1.921-0.456,4.056-1.039,4.056-1.039	c1.438-0.355,1.324-1.893,1.324-1.893l-0.029-52.952c0-11.613-3.102-20.223-9.207-25.559c-6.077-5.322-15.028-8.013-26.597-8.013	c-4.341,0-11.328,0.599-15.512,1.438c0,0-12.651,2.448-17.86,6.518c0,0-1.138,0.712-0.512,2.306l4.099,11.015	c0.512,1.423,1.893,0.939,1.893,0.939s0.441-0.171,0.954-0.47c11.143-6.062,25.231-5.877,25.231-5.877	c6.262,0,11.072,1.252,14.316,3.742c3.159,2.419,4.767,6.076,4.767,13.789v2.448C276.208,316.879,271.64,316.467,271.64,316.467"/><path id="path3037" inkscape:connector-curvature="0" fill="#FFFFFF" d="M738.669,286.631c0.44-1.31-0.484-1.936-0.869-2.078	c-0.981-0.384-5.905-1.423-9.705-1.665c-7.271-0.441-11.312,0.783-14.928,2.405c-3.586,1.622-7.57,4.24-9.791,7.215v-7.044	c0-0.982-0.697-1.765-1.665-1.765h-14.843c-0.967,0-1.664,0.782-1.664,1.765v86.366c0,0.968,0.797,1.765,1.764,1.765h15.213	c0.968,0,1.75-0.797,1.75-1.765v-43.147c0-5.792,0.641-11.569,1.922-15.198c1.252-3.587,2.96-6.461,5.066-8.525	c2.12-2.049,4.525-3.486,7.158-4.297c2.689-0.826,5.663-1.096,7.77-1.096c3.031,0,6.361,0.782,6.361,0.782	c1.109,0.128,1.736-0.555,2.105-1.565C735.31,296.137,738.128,288.21,738.669,286.631"/><path id="path3041" inkscape:connector-curvature="0" fill="#FFFFFF" d="M595.874,246.603c-1.85-0.569-3.529-0.954-5.721-1.366	c-2.221-0.398-4.867-0.598-7.869-0.598c-10.475,0-18.729,2.96-24.52,8.794c-5.764,5.807-9.678,14.644-11.642,26.271l-0.712,3.913	h-13.148c0,0-1.594-0.057-1.936,1.68l-2.148,12.053c-0.157,1.139,0.342,1.864,1.878,1.864h12.794l-12.979,72.463	c-1.011,5.835-2.178,10.631-3.473,14.273c-1.267,3.587-2.504,6.276-4.041,8.24c-1.48,1.879-2.875,3.273-5.295,4.084	c-1.992,0.669-4.297,0.982-6.816,0.982c-1.395,0-3.258-0.229-4.639-0.513c-1.366-0.271-2.092-0.569-3.131-1.011	c0,0-1.494-0.568-2.092,0.926c-0.47,1.238-3.885,10.615-4.298,11.769c-0.398,1.152,0.171,2.049,0.896,2.319	c1.708,0.598,2.974,0.996,5.294,1.551c3.217,0.755,5.934,0.797,8.481,0.797c5.322,0,10.189-0.754,14.217-2.205	c4.042-1.466,7.57-4.014,10.701-7.457c3.373-3.729,5.493-7.628,7.515-12.964c2.006-5.266,3.729-11.812,5.094-19.439l13.05-73.815	h19.069c0,0,1.607,0.057,1.936-1.693l2.162-12.039c0.143-1.152-0.341-1.864-1.893-1.864h-18.514c0.1-0.412,0.939-6.931,3.06-13.063	c0.911-2.604,2.618-4.725,4.056-6.177c1.424-1.423,3.06-2.433,4.854-3.017c1.835-0.598,3.928-0.882,6.219-0.882	c1.736,0,3.457,0.199,4.752,0.469c1.793,0.385,2.49,0.584,2.961,0.727c1.893,0.569,2.148,0.014,2.519-0.896l4.426-12.153	C597.396,247.314,596.272,246.759,595.874,246.603"/><path id="path3045" inkscape:connector-curvature="0" fill="#FFFFFF" d="M337.194,371.834c0,0.968-0.697,1.751-1.665,1.751h-15.355	c-0.968,0-1.651-0.783-1.651-1.751v-123.58c0-0.967,0.683-1.75,1.651-1.75h15.355c0.968,0,1.665,0.783,1.665,1.75V371.834z"/></svg>