<?xml version="1.0" encoding="utf-8"?><!-- Generator: Adobe Illustrator 16.0.0, SVG Export Plug-In . SVG Version: 6.00 Build 0) --><!DOCTYPE svg PUBLIC "-//W3C//DTD SVG 1.1//EN" "http://www.w3.org/Graphics/SVG/1.1/DTD/svg11.dtd"><svg version="1.1" id="Layer_1" xmlns="http://www.w3.org/2000/svg" xmlns:xlink="http://www.w3.org/1999/xlink" x="0px" y="0px" width="601.129px" height="125.415px" viewBox="5.673 333.204 601.129 125.415" enable-background="new 5.673 333.204 601.129 125.415" xml:space="preserve"><g><path fill="#303035" d="M606.802,369.299c0,2.835-2.362,5.672-5.671,5.672c-2.836,0-32.609-2.363-32.609-5.199	c0-2.834,29.773-5.67,32.609-5.67C604.438,363.628,606.802,366.463,606.802,369.299z M593.569,336.218	c1.418,2.835,0.473,6.144-1.892,7.562c-2.835,1.418-29.301,14.178-31.189,11.343c-1.418-2.835,23.155-19.849,25.52-21.267	C588.844,332.438,592.151,333.382,593.569,336.218z M586.008,405.216c-2.836-1.418-26.938-18.431-25.52-21.267	s28.354,9.924,31.189,11.342c2.836,1.418,3.78,4.727,1.892,7.562C592.151,405.688,588.844,406.633,586.008,405.216z"/><path fill="#303035" d="M213.609,439.242"/><path fill="#303035" d="M265.121,439.714c0,3.781,3.308,6.616,7.089,6.616c3.308,0,6.144-2.835,6.616-6.145v-43.004	c0-21.268-3.781-34.5-27.41-34.5c-12.287,0-19.849,6.145-25.992,15.596c-2.835-5.672-8.034-15.596-25.992-15.596	c-13.705,0-19.849,7.562-23.629,15.596h-0.473c0-2.363,0-5.198,0-7.562c-0.473-2.836-3.308-5.198-6.144-5.198	c-3.781,0-6.616,2.834-6.616,6.144c0,3.78,0.473,8.034,0.473,12.76v55.292c0,3.781,3.308,6.616,7.089,6.616	c3.308,0,6.144-2.835,6.616-6.145v-33.554c0-18.902,3.781-31.663,21.739-31.663c11.342,0,16.068,7.089,16.068,25.048v39.226	c0,3.78,3.308,6.615,7.088,6.615c3.308,0,6.144-2.835,6.616-6.145V399.07c0-14.65,9.452-24.104,21.267-24.104	c16.068,0,16.068,10.87,16.068,22.686L265.121,439.714z"/><path fill="#303035" d="M392.72,439.714c0,3.781,3.309,6.616,7.089,6.616c3.309,0,6.145-2.835,6.616-6.145v-43.004	c0-21.268-3.781-34.5-27.41-34.5c-12.287,0-19.849,6.145-25.991,15.596c-2.837-5.672-8.034-15.596-25.992-15.596	c-13.705,0-19.85,7.562-23.629,15.596h-0.474c0-2.363,0-5.198,0-7.562c-0.473-2.836-3.308-5.198-6.144-5.198	c-3.781,0-6.616,2.834-6.616,6.144c0,3.78,0.473,8.034,0.473,12.76v55.292c0,3.781,3.308,6.616,7.088,6.616	c3.308,0,6.144-2.835,6.615-6.145v-33.554c0-18.902,3.781-31.663,21.739-31.663c11.342,0,16.068,7.089,16.068,25.048v39.226	c0,3.78,3.308,6.615,7.088,6.615c3.309,0,6.145-2.835,6.616-6.145V399.07c0-14.65,9.451-24.104,21.267-24.104	c16.068,0,16.068,10.87,16.068,22.686L392.72,439.714z"/><path fill="#303035" d="M36.389,428.372c-4.253,11.813-8.034,17.485-17.013,17.485c-0.945,0-3.781,0-4.253,0	c-2.835,0-5.671,1.891-6.144,4.727c-0.945,3.308,0.945,6.616,4.253,7.562c2.363,0.473,4.726,0.473,7.089,0.473	c16.541,0,22.211-9.452,27.41-23.63l32.136-80.341c0.945-3.779-0.945-7.561-4.253-8.506c-3.781-0.945-7.561,0.945-8.506,4.254	l-23.157,60.019h-0.473l-23.629-60.491c-1.89-3.308-5.671-5.199-9.452-3.781c-3.781,1.418-5.671,5.672-4.253,8.979L36.389,428.372z	"/><path fill="#303035" d="M150.283,439.242c0-1.892-0.473-4.254-0.473-6.146v-35.442c0-23.157-10.397-34.973-34.499-34.973	c-9.924,0-19.849,2.836-27.41,8.506c-2.363,2.363-2.363,5.672-0.945,8.508c1.89,2.834,6.144,3.308,8.979,1.416	c5.671-3.307,13.232-5.197,19.849-5.197c12.76,0,20.321,6.145,20.321,17.958v2.362h-5.198c-20.321,0-51.985,1.418-51.985,28.829	c0,16.066,13.705,24.573,30.718,24.573c12.287,0,21.739-6.144,26.938-14.649h0.473c0,1.891,0,4.254,0,6.616	c0.473,3.309,3.781,5.671,7.562,5.197C148.392,446.33,150.755,443.022,150.283,439.242z M136.578,412.775	c-0.473,13.233-8.506,24.575-24.102,24.575c-10.397,0-17.958-3.78-17.958-14.178c0-10.868,11.342-16.067,28.828-16.067h13.705v5.67	H136.578z"/><path fill="#303035" d="M521.736,370.717c-0.474-3.781-4.254-6.144-8.034-5.199c-2.836,0.474-4.727,2.836-5.198,5.199	c0,4.254,0.473,8.506,0.473,13.705v56.237c0.473,3.309,3.309,6.144,7.089,6.144s6.615-3.308,6.615-6.615v-32.608	c0-18.903,7.562-30.718,24.104-30.718c0.945,0,1.891,0,2.835,0c3.781,0,7.089-2.836,7.089-6.616c0-3.781-2.835-7.089-6.616-7.089	l0,0c-14.178,0-24.102,7.562-27.882,15.595h-0.473C522.209,375.915,521.736,373.552,521.736,370.717"/><path fill="#303035" d="M498.579,400.489c-1.891-24.103-17.013-37.808-38.752-37.808c-24.103,0-42.062,17.959-42.062,43.479	c0,24.103,15.597,43.479,41.589,43.479c12.286,0,22.212-2.836,30.718-10.869c2.362-2.362,2.362-6.145,0-8.507	c-1.891-2.362-5.671-2.836-8.033-0.944c-5.199,5.197-12.76,8.033-22.212,8.033c-17.485,0-27.883-10.396-28.355-26.465h60.491	c1.891,0,2.363,0,3.31-0.473c1.89-0.945,2.361-2.363,3.308-4.254C498.579,404.743,498.579,400.489,498.579,400.489z M431.472,398.6	c2.363-14.649,11.814-24.103,27.884-24.103c16.068,0,25.52,9.452,26.465,24.103H431.472z"/></g></svg>